<?xml version="1.0" standalone="no"?>
<!DOCTYPE svg PUBLIC "-//W3C//DTD SVG 1.1//EN" "http://www.w3.org/Graphics/SVG/1.1/DTD/svg11.dtd" >
<svg xmlns="http://www.w3.org/2000/svg" xmlns:xlink="http://www.w3.org/1999/xlink" version="1.1">
<metadata></metadata>
<defs>
<font id="cardenio_modernbold" horiz-adv-x="913" >
<font-face units-per-em="2048" ascent="1638" descent="-410" />
<missing-glyph horiz-adv-x="508" />
<glyph horiz-adv-x="0" />
<glyph unicode="&#xd;" horiz-adv-x="508" />
<glyph unicode=" "  horiz-adv-x="508" />
<glyph unicode="&#x09;" horiz-adv-x="508" />
<glyph unicode="&#xa0;" horiz-adv-x="508" />
<glyph unicode="!" horiz-adv-x="457" d="M123 367q4 168 4 236q0 936 20 936q24 17 60 20q108 -4 108 -32q-4 -815 -4 -1160q-9 -44 -44 -44h-84q-43 0 -60 44zM127 -41v88q0 80 60 80q128 0 128 -80q4 0 4 -48q0 -96 -92 -96h-8q-92 0 -92 56z" />
<glyph unicode="&#x22;" horiz-adv-x="657" d="M109 1170v36q12 290 12 396q20 16 28 16q94 -4 104 -4q16 -18 16 -20q-4 -313 -4 -376q0 -88 -40 -88h-80q-30 0 -36 40zM361 1138q4 107 4 168v252q0 56 108 56q44 -11 44 -88q0 -27 -4 -352q0 -60 -52 -60h-40q-47 0 -60 24z" />
<glyph unicode="#" horiz-adv-x="1082" d="M69 434v12q0 104 64 104l128 4v76q0 111 12 328q4 8 4 12q-46 0 -132 -8q-48 11 -48 44v52q0 76 132 76q21 0 68 4q16 212 44 212q26 16 84 16h16q56 -5 56 -48q0 -24 -20 -176h96q31 304 72 304l40 8q108 0 108 -48q-32 -121 -32 -272q168 -13 168 -40q16 0 16 -56v-20 q0 -52 -44 -52q-58 0 -168 8q-4 -294 -4 -412h92q136 0 136 -52v-60q0 -44 -72 -48h-152q0 -40 12 -248q0 -26 -72 -32h-20q-84 0 -84 80l-12 200h-112l16 -240q-25 -24 -56 -24h-32q-96 0 -96 112q0 36 -8 152q-99 -4 -152 -4q-28 0 -48 36zM441 614l4 -56q10 0 108 4v164 q0 160 8 252h-100q-20 -218 -20 -364z" />
<glyph unicode="$" horiz-adv-x="950" d="M74 1158q0 284 68 360q68 64 200 64v4q4 74 4 108q23 28 100 28q72 0 72 -40v-100q151 0 240 -116q32 -56 32 -180v-144q0 -64 -96 -64h-8q-64 4 -64 28q-4 131 -4 204v24q0 92 -76 92h-36q12 -409 24 -536h32q243 0 284 -232q8 -122 8 -156v-48q0 -322 -148 -412 q-82 -51 -120 -56v-84q0 -56 -112 -56q-68 4 -68 44v68q0 6 -96 20q-103 33 -144 100q-72 144 -72 252v64q0 208 104 208h48q36 -5 36 -36q-20 -141 -20 -204q0 -194 100 -232l28 -4h12q-4 148 -36 596h-8q-199 0 -260 180q-24 106 -24 256zM222 1110q10 -216 108 -216h24 q-12 337 -12 520v12h-24q-65 0 -88 -108q-8 -118 -8 -208zM542 714l36 -568h4q108 54 108 272v44q0 220 -56 236q-29 16 -64 16h-28z" />
<glyph unicode="%" horiz-adv-x="1320" d="M86 1231q0 187 80 364q73 88 220 88q127 0 172 -136q8 -39 12 -88q0 -236 -64 -460q-34 -56 -64 -56q0 -20 -132 -20q-144 0 -196 148q-28 77 -28 160zM250 3v8l80 196l124 384q244 662 372 916q74 172 120 172h4q112 -23 112 -72q0 -15 -52 -116q-252 -528 -464 -1180 q-16 -39 -96 -304q-36 -52 -100 -52h-8q-80 0 -92 48zM266 1187q0 -104 44 -104h28q52 0 52 352v60q0 28 -28 28q-72 0 -96 -248v-88zM750 431v24q0 276 100 344q53 52 140 52h28q139 0 188 -196q4 -52 4 -84v-128q0 -436 -256 -436q-158 0 -200 316q-4 48 -4 108zM930 419 q6 -230 40 -248q68 49 68 292v108q-8 128 -40 128q-68 0 -68 -192v-88z" />
<glyph unicode="&#x26;" horiz-adv-x="1068" d="M126 382v168q0 167 72 256v4q-60 83 -60 192q38 552 272 552h36q170 0 260 -228q4 -28 4 -48q0 -228 -44 -228q-19 -12 -52 -12h-28q-64 9 -64 48l12 200q0 80 -128 108h-4q-53 -26 -84 -408q0 -77 52 -92q87 8 120 8h4q44 0 44 -104q0 -68 -128 -68q-88 0 -88 -68 q-11 0 -16 -120v-104q0 -226 60 -280q51 -32 84 -32q144 0 144 240v132l-112 -80q-7 -4 -20 -4h-4q-44 0 -68 96q0 42 116 112q329 252 352 252h12q56 0 80 -96q0 -34 -92 -96q-89 -76 -96 -76q12 -140 12 -260q0 -259 -168 -340q-74 -36 -124 -36h-64q-192 0 -264 200 q-28 88 -28 212z" />
<glyph unicode="'" horiz-adv-x="355" d="M67 1209v252q0 88 84 88h36q72 0 72 -96v-232q0 -76 -92 -76h-44q-56 0 -56 64z" />
<glyph unicode="(" horiz-adv-x="604" d="M150 676v28q0 477 292 864q16 12 24 12q108 -26 108 -96q-154 -283 -196 -380q-64 -206 -64 -432q0 -255 116 -548q68 -146 68 -160q0 -89 -104 -100h-16q-63 0 -104 152q-44 112 -108 424q-16 123 -16 236z" />
<glyph unicode=")" horiz-adv-x="604" d="M33 -46q0 9 84 156q176 332 176 660q0 242 -128 588q-61 139 -68 176q0 53 100 84q66 0 168 -328q96 -276 96 -516v-32q0 -380 -204 -736q-85 -156 -108 -156q0 -4 -8 -4q-108 42 -108 96v12z" />
<glyph unicode="*" horiz-adv-x="1003" d="M83 1005q11 30 120 100l152 120q-204 219 -204 240q0 52 84 88q23 0 168 -164q37 -40 40 -40h4q122 268 140 268l20 4q92 -19 92 -60v-8q-43 -109 -112 -252q288 -58 288 -76l8 -12v-32q-8 -72 -64 -72h-4q-118 20 -224 44v-4q28 -84 88 -224v-4q0 -54 -100 -72h-12 q-24 0 -128 244h-4l-252 -188l-20 -4q-29 0 -76 76z" />
<glyph unicode="+" horiz-adv-x="958" d="M107 620q5 104 28 104q207 -4 212 -4v4q0 424 20 424q26 16 68 16q92 0 108 -52v-4q0 -40 -8 -400l232 -8l24 4q28 -21 28 -84v-24q-4 -72 -24 -72q-42 0 -264 8v-4q0 -166 28 -316q0 -36 -72 -36h-4q-112 0 -112 56q-20 29 -24 280v28q-228 13 -228 24q-12 21 -12 56z " />
<glyph unicode="," horiz-adv-x="449" d="M-45 -274q0 22 64 96q44 67 44 140v8q0 54 -32 220q0 36 72 36q94 0 120 -72q28 -69 28 -208q0 -163 -152 -304q-34 -16 -52 -16q-92 31 -92 96v4z" />
<glyph unicode="-" horiz-adv-x="702" d="M92 709v32q0 64 92 64h104q172 0 244 8q63 0 72 -104v-12q0 -64 -124 -64q-50 -4 -308 -8q-65 0 -80 84z" />
<glyph unicode="." horiz-adv-x="372" d="M22 95q0 41 32 73t79 32q46 0 78 -32t32 -73q0 -42 -32 -74t-78 -32q-47 0 -79 32t-32 74z" />
<glyph unicode="/" horiz-adv-x="730" d="M42 -71q0 12 52 172q112 326 272 1112q115 444 200 444h12q116 -26 116 -76q0 -12 -76 -200q-116 -365 -172 -700q-84 -402 -188 -760q-34 -52 -84 -52h-16q-116 0 -116 60z" />
<glyph unicode="0" horiz-adv-x="1060" d="M93 496v104q0 513 156 832q105 160 192 160q25 12 80 12h40q146 0 224 -100q160 -148 160 -488q0 -833 -224 -1000q-94 -76 -236 -76q-281 0 -368 304q-24 158 -24 252zM253 564q0 -328 108 -420q78 -36 124 -36q152 0 208 192q80 356 80 624v160q0 244 -108 304 q-39 48 -68 48h-72q-186 0 -240 -516q-20 -64 -32 -356z" />
<glyph unicode="1" horiz-adv-x="652" d="M82 1146v48q79 144 260 356q38 60 80 60h8q51 0 100 -92q-20 -135 -20 -488v-496q0 -190 4 -544q-14 -48 -56 -48h-40q-47 0 -68 48q0 17 -4 184q0 219 -4 808q4 184 4 280v4h-4q-118 -160 -144 -176q-15 -4 -32 -4q-84 12 -84 60z" />
<glyph unicode="2" horiz-adv-x="852" d="M97 112v20q0 265 244 688q176 247 176 468v20q0 100 -108 116h-48q-76 -10 -76 -72v-16q0 -37 4 -104q0 -35 -96 -40q-76 0 -76 128v40q0 187 204 248q16 4 32 4h60q201 0 264 -220q8 -44 8 -100v-36q0 -282 -240 -624q-139 -255 -159 -467v-2q0 -43 167 -43q34 0 76 2 q53 0 160 8q32 -13 32 -36q-13 -146 -116 -146h-196q-248 0 -296 60q-16 22 -16 104z" />
<glyph unicode="3" horiz-adv-x="877" d="M111 1361q0 199 280 236q62 12 92 12q180 0 224 -232q7 -65 12 -192q0 -174 -60 -304q84 -82 84 -400q0 -359 -160 -460q-128 -72 -264 -72q-200 0 -200 248v116q0 100 104 100q60 0 60 -64q0 -208 32 -208q1 -8 8 -8h4q105 0 200 76q48 53 48 284v56q0 166 -60 240 q-118 -36 -176 -36h-4q-76 0 -76 76v12q0 82 160 108q92 32 92 80q36 64 36 188v88q0 140 -120 140q-148 -19 -148 -72v-16q8 -113 8 -144q0 -68 -80 -68h-24q-72 0 -72 216z" />
<glyph unicode="4" horiz-adv-x="910" d="M77 689q0 30 84 244q144 412 208 652q31 48 104 48q56 0 56 -24q0 -59 -236 -816h164q34 320 60 320q38 52 92 52q44 0 44 -64q0 -43 -32 -292q60 4 88 4h4q92 0 92 -52v-12q0 -104 -112 -104h-76q-16 -147 -16 -312v-24q0 -104 12 -308q-26 -28 -88 -28q-96 0 -96 356 q0 87 16 308q-85 -8 -112 -8q-228 0 -228 24q-21 0 -28 36z" />
<glyph unicode="5" d="M99 241v64q0 108 100 108h36q28 -13 28 -36q0 -38 -4 -124q19 -124 108 -124q0 -4 28 -4h24q85 0 120 108q48 255 48 532v76q-11 124 -124 124h-8q-100 0 -128 -104q-39 -48 -68 -48h-8q-50 0 -88 52l4 20v192q0 123 -8 372q10 76 68 76h24q223 0 516 48h4q40 0 40 -60 v-4q0 -93 -172 -128q-210 -32 -308 -32l12 -248q120 20 148 20q183 0 248 -220q16 -92 16 -132v-20q0 -602 -164 -740q-80 -56 -176 -56q-237 0 -300 180q-16 54 -16 108z" />
<glyph unicode="6" horiz-adv-x="844" d="M119 794q0 554 112 696q105 88 212 88q203 0 240 -84q28 -86 28 -196v-56q0 -71 -56 -84h-44q-52 0 -52 68q0 138 -76 172q-34 8 -40 8q-83 0 -116 -88q-44 -110 -44 -344q4 -103 4 -116h4q108 56 244 56q159 0 188 -384v-116q0 -355 -244 -460q-22 -4 -36 -4h-48 q-187 0 -248 268q-18 0 -28 576zM283 502q0 -283 76 -372q15 -12 28 -12h44q104 0 128 344v16q0 201 -60 248q-33 16 -64 16q-152 0 -152 -240z" />
<glyph unicode="7" horiz-adv-x="873" d="M96 1423v48q0 67 80 76q258 0 552 12q50 -8 52 -20v-16l-168 -508q-72 -249 -168 -920q-37 -132 -104 -132h-16q-56 5 -56 52q80 637 184 1056l84 240q0 16 16 68l-48 4q-113 0 -380 -4q-23 0 -28 44z" />
<glyph unicode="8" horiz-adv-x="856" d="M125 586q0 146 168 288q-140 115 -140 316v8q0 282 132 356q129 64 236 64q140 0 192 -124q24 -56 24 -144v-120q0 -205 -176 -376q152 -98 152 -532v-88q0 -248 -264 -300q-17 -8 -64 -8q-158 0 -208 116q-52 141 -52 544zM293 378q0 -228 92 -280l20 -4h8 q105 0 136 124q4 89 4 144v12q0 319 -128 380q-132 -54 -132 -260v-116zM317 1166q0 -121 124 -220q128 107 128 284v152q-13 76 -60 76q-83 0 -148 -56q-36 -49 -36 -156q-3 0 -8 -80z" />
<glyph unicode="9" horiz-adv-x="865" d="M109 269v160q0 36 44 36h36q76 0 76 -60q4 -42 4 -92v-8q0 -9 -4 -16q22 -164 96 -164h32q120 0 164 144q24 95 24 304q0 50 -8 144h-8q-99 -48 -192 -48h-16q-180 0 -244 312q-4 28 -4 80v56q0 298 200 416q58 20 124 20h48q160 0 228 -204q36 -206 36 -492v-36 q0 -735 -152 -788q-108 -80 -216 -80q-172 0 -236 144q-32 70 -32 172zM277 1057q0 -183 112 -216h56q35 0 128 48q4 105 4 124q0 295 -60 360q-34 12 -100 12q-98 0 -128 -172q-12 -55 -12 -100v-56z" />
<glyph unicode=":" horiz-adv-x="404" d="M60 429q0 41 32 73t79 32q46 0 78 -32t32 -73q0 -42 -32 -74t-78 -32q-47 0 -79 32t-32 74zM71 900q0 41 32 73t79 32q46 0 78 -32t32 -73q0 -42 -32 -74t-78 -32q-47 0 -79 32t-32 74z" />
<glyph unicode=";" horiz-adv-x="460" d="M25 -286q0 8 44 84q60 99 60 292q9 100 32 100q156 0 156 -108q-24 -263 -68 -336q-47 -88 -108 -88q-69 0 -116 52v4zM123 504q0 41 32 73t79 32q46 0 78 -32t32 -73q0 -42 -32 -74t-78 -32q-47 0 -79 32t-32 74z" />
<glyph unicode="&#x3c;" horiz-adv-x="775" d="M78 503q0 83 220 308q81 97 196 212h12q46 0 120 -84v-20q-207 -239 -332 -416q0 -21 248 -328q48 -61 64 -112q0 -37 -112 -84h-8q-275 295 -392 484q-16 31 -16 40z" />
<glyph unicode="=" horiz-adv-x="911" d="M91 534q0 136 124 136q184 16 248 16q227 0 296 -40q16 -23 16 -36q-12 -112 -44 -112q-82 12 -220 12h-20q-146 0 -372 -20q-22 0 -28 44zM99 918q0 60 112 80q91 20 184 20h48q336 -15 336 -68q12 -2 12 -32v-36q0 -64 -40 -64h-4q-207 24 -260 24h-112q-73 0 -240 -28 q-36 0 -36 104z" />
<glyph unicode="&#x3e;" horiz-adv-x="801" d="M120 115v8q0 54 208 312q107 126 132 184q-127 179 -332 416v16q65 84 116 84h4q23 0 116 -104q225 -243 284 -332q28 -51 28 -84q-26 -82 -336 -456q-84 -105 -100 -116h-8q-51 0 -112 72z" />
<glyph unicode="?" horiz-adv-x="840" d="M96 1334q0 91 60 204q45 52 124 52h112q324 0 324 -388q0 -178 -196 -408q-88 -157 -88 -432q-27 -20 -92 -20h-32q-60 7 -60 44v12q0 402 216 620q64 106 64 192q0 158 -72 196l-24 4h-112q-44 -6 -44 -76q8 -167 8 -248q-27 -20 -68 -20h-40q-76 6 -76 48 q-4 190 -4 220zM236 -46l4 40v100q7 52 44 52h88q56 0 56 -64v-104q0 -68 -88 -68h-24q-67 0 -80 44z" />
<glyph unicode="@" horiz-adv-x="1399" d="M96 540v120q0 674 224 968q141 116 392 116q386 0 512 -328q40 -114 40 -244v-64q-15 -596 -48 -656q-24 -135 -76 -200q-50 -60 -164 -60q-120 0 -176 104q-4 7 -4 16q-104 -24 -124 -24q-164 0 -220 308q-8 46 -8 112v20q0 324 188 428q47 16 72 16h76l40 -4v52 q0 8 24 12q132 0 132 -64q-40 -656 -40 -692q19 -56 52 -56h12q73 0 100 728q0 424 -376 424h-32q-267 0 -316 -164q-112 -276 -112 -864q0 -586 392 -748q28 -8 48 -8h56q87 4 214 126h16q54 0 88 -84v-12q-85 -154 -238 -190q-63 -12 -96 -12h-24q-256 0 -464 304 q-160 223 -160 620zM612 720q13 -264 72 -264q38 4 84 40q28 456 28 512h-4q-44 4 -44 8q-99 0 -128 -160q-8 -51 -8 -96v-40z" />
<glyph unicode="A" horiz-adv-x="1052" d="M138 232v16q8 227 40 676q0 264 44 395t95 170t229 75q90 24 204 24q124 0 124 -116q-6 -280 -6 -372q10 -604 58 -1064q0 -44 -100 -44q-72 4 -76 24l-32 564q-155 0 -400 -16q-12 -177 -16 -312q8 -212 8 -256q-26 -28 -108 -28q-45 0 -60 16q-4 166 -4 248zM326 728h8 q207 0 380 20q-8 157 -8 326q0 170 8 341q-162 -1 -300 -75q-64 -65 -64 -292q-8 -67 -24 -320z" />
<glyph unicode="B" horiz-adv-x="937" d="M125 718v84q22 732 40 732q55 44 244 44q237 0 316 -176q36 -110 36 -188q0 -211 -152 -336q107 -62 156 -224q28 -95 28 -320q0 -218 -204 -296q-118 -44 -260 -44h-104q-92 0 -92 20v32q-8 606 -8 672zM281 562q0 -194 12 -412l28 -4h44q213 0 260 136q8 44 8 100v16 q0 277 -128 344q-16 8 -44 8h-28q-68 0 -148 -12q-4 -137 -4 -176zM293 934h4q232 0 296 180q12 43 12 72v24q0 128 -60 164q-57 24 -116 24h-120l-16 -336v-128z" />
<glyph unicode="C" horiz-adv-x="1036" d="M111 733q0 624 144 748q149 96 376 96h24q180 0 236 -132q12 -47 16 -92q0 -212 -88 -212q-25 -4 -56 -4q-36 0 -36 20q0 68 8 196q0 56 -108 56q-234 0 -288 -96q-56 -169 -56 -424v-312q0 -316 92 -384q161 -64 276 -64h20q56 7 56 48v68q0 28 -12 224q0 19 112 44h20 q40 0 40 -132q12 -151 12 -176q0 -168 -128 -224q-52 -16 -100 -16h-52q-217 0 -392 132q-116 130 -116 636z" />
<glyph unicode="D" horiz-adv-x="905" d="M130 1225v136q0 168 20 168q57 40 236 40h44q202 0 276 -164q48 -77 48 -312q12 -73 24 -596q0 -375 -372 -504q-90 -24 -184 -24q-72 0 -72 64q-5 36 -8 44q4 84 4 136q-16 752 -16 1012zM302 1201q14 -1048 24 -1048q101 9 192 96q92 121 92 284q-15 812 -56 812 q-40 60 -116 60h-32q-104 0 -104 -52v-152z" />
<glyph unicode="E" horiz-adv-x="791" d="M107 1508q9 40 80 40h468q16 0 16 -60v-48q0 -48 -44 -48h-56q-137 0 -288 -8q0 -30 24 -476l280 8q32 0 32 -88q0 -76 -48 -76l-260 -12q8 -411 16 -568q106 12 304 24q32 0 40 -56v-48q0 -72 -76 -72q-274 -16 -428 -16q-12 24 -12 76v544q0 397 -48 884z" />
<glyph unicode="F" horiz-adv-x="897" d="M116 1490v48q0 52 64 52q310 -36 584 -44q16 -17 16 -72q-6 -88 -24 -88h-48q-57 0 -428 28q4 -402 8 -524l444 -8l8 -12v-40q-8 -112 -56 -112h-4q-64 0 -384 4q8 -182 8 -560q0 -80 8 -176q-30 -28 -80 -28h-28q-60 0 -60 48q-13 0 -28 1484z" />
<glyph unicode="G" horiz-adv-x="1052" d="M114 584v96q0 506 156 792q115 108 376 108h20q195 0 244 -84q16 0 16 -248v-164q0 -57 -72 -64h-56q-40 0 -44 24q12 305 12 356q-93 12 -132 12q-188 0 -248 -68q-112 -311 -112 -716q0 -364 112 -448q24 -28 244 -40q45 4 80 4l8 392q-228 26 -228 40l-4 20v48 q6 76 36 76q356 -18 356 -40l8 -28v-156q0 -46 -4 -84q12 -220 12 -280v-24q0 -132 -144 -132q-63 0 -120 -8q-241 0 -388 116q-128 129 -128 500z" />
<glyph unicode="H" horiz-adv-x="1097" d="M143 1563q0 32 84 48h32q56 -3 56 -20q36 -560 36 -692q234 -28 372 -36l32 760q23 24 60 24q132 -11 132 -72q-16 -296 -52 -1180q0 -117 32 -380q0 -39 -96 -48q-92 0 -92 152q-16 355 -16 460v112l-372 24v-4q0 -123 16 -708q0 -38 -92 -44q-72 0 -72 68 q-24 323 -24 640v288q0 64 -36 608z" />
<glyph unicode="I" horiz-adv-x="404" d="M83 1512q0 48 64 48l56 4q43 0 52 -128q16 -759 44 -1376q-12 -60 -92 -60h-8q-43 0 -64 32q-36 858 -52 1480z" />
<glyph unicode="J" horiz-adv-x="860" d="M88 141v272q0 27 144 32q18 -8 20 -16q0 -42 8 -332h8q249 0 300 212q4 26 4 52q0 112 4 140q-4 316 -16 664q0 287 52 380q19 16 60 16q82 -1 92 -28q-36 -253 -36 -396q12 -252 12 -488v-192q0 -346 -124 -420q-114 -108 -308 -108h-88q-132 0 -132 212z" />
<glyph unicode="K" horiz-adv-x="918" d="M81 1500q30 62 119 62q49 -6 49 -21l16 -483q223 225 283 332q11 2 74 98q52 78 74 78h8q78 -30 78 -98q0 -115 -259 -406q-62 -79 -155 -180q372 -625 475 -836q0 -39 -82 -82l-24 -4h-5q-59 0 -131 172q-130 234 -176 303q-38 80 -156 279h-4v-4q29 -472 29 -643 q-15 -70 -119 -70q-53 5 -53 41q0 96 -41 1462z" />
<glyph unicode="L" horiz-adv-x="918" d="M121 1311v240q10 27 92 28q76 0 76 -44v-204q0 -186 24 -648q-4 -364 -4 -492q4 0 4 4q145 8 284 8h28q46 0 140 -4q28 -26 28 -72v-12q0 -85 -56 -100h-40q-335 0 -524 -28q-28 21 -28 108q0 162 -4 216l8 488q-28 236 -28 512z" />
<glyph unicode="M" horiz-adv-x="1162" d="M117 1462v28q0 80 84 80q94 0 128 -80q107 -210 224 -416h4q286 474 308 492q15 8 32 8h4q71 0 108 -40q-24 -298 -36 -696q32 -727 40 -804q-20 -52 -96 -52q-72 0 -72 64q-36 432 -36 800q0 100 4 284q4 8 4 12q-193 -306 -232 -352q-21 -16 -36 -16h-8q-40 0 -104 132 q-28 35 -108 176h-4q60 -849 72 -1076q-36 -40 -140 -40h-8q-40 0 -40 260q-60 1003 -92 1236z" />
<glyph unicode="N" horiz-adv-x="926" d="M124 1515q0 44 96 56q62 0 100 -140q168 -378 312 -908h4q16 343 16 796v216q0 32 40 32q116 0 116 -80q0 -662 -24 -1520q-7 -32 -57 -32q-16 0 -36 3q-85 12 -87 61q-160 658 -320 1068h-4q20 -397 20 -656q0 -138 -8 -448q-21 -24 -52 -24q-104 18 -104 104 q-4 610 -4 892v124q0 144 -4 444q-4 8 -4 12z" />
<glyph unicode="O" horiz-adv-x="1032" d="M108 655q0 629 136 828q211 124 296 124h36q250 0 328 -592q0 -58 4 -248q0 -381 -148 -684q-98 -132 -232 -132q-272 0 -372 272q-48 178 -48 432zM272 675q0 -422 128 -524q91 -32 152 -32q141 0 184 652q4 97 4 148q0 346 -152 512q-13 8 -24 8h-12q-77 0 -208 -100 q-41 -78 -68 -568q-4 -12 -4 -96z" />
<glyph unicode="P" horiz-adv-x="905" d="M122 1511q16 48 96 48q50 8 84 8h60q314 0 404 -228q20 -148 20 -232q0 -544 -448 -544h-44v-508q0 -76 -84 -76h-4q-80 0 -80 80v916q0 205 -4 536zM282 1395q12 -308 12 -576v-84h32q202 0 264 144q48 91 48 248v40q0 140 -120 212q-66 24 -156 24q-20 0 -80 -8z" />
<glyph unicode="Q" horiz-adv-x="1060" d="M102 681v168q0 531 260 680q119 48 212 48h56q96 0 176 -120q108 -227 108 -712v-108q0 -441 -204 -628q55 -115 156 -240q56 -49 56 -80q0 -51 -88 -72q-82 0 -172 140q-32 44 -60 96q-53 100 -60 104h-56q-143 0 -256 144q-128 178 -128 580zM270 537q0 -304 160 -396 q53 -16 76 -16v4q-48 105 -48 148q0 52 72 52q39 0 84 -84q26 -60 32 -60q108 129 108 384q-15 616 -36 616q0 85 -84 196q-39 28 -72 28q-292 0 -292 -568v-304z" />
<glyph unicode="R" horiz-adv-x="958" d="M145 -1q0 68 16 500q-8 235 -8 460v488q0 84 68 84q1 12 136 16q313 0 412 -260q28 -83 28 -216q0 -213 -200 -372l-20 -8q0 -14 156 -348q96 -246 96 -296v-8q-25 -68 -116 -68h-12q-23 0 -88 184q-80 191 -228 488h-52v-204q-17 -476 -44 -476q-14 -12 -48 -12h-52 q-36 0 -44 48zM313 1031q0 -63 4 -208q6 -16 12 -16h24q184 0 232 116q48 92 48 192v20q0 244 -312 244q-8 -162 -8 -348z" />
<glyph unicode="S" horiz-adv-x="856" d="M115 167q0 232 44 232q0 9 36 12h28q36 0 56 -28q0 -41 -8 -172q19 -96 88 -96q120 0 188 116q28 71 28 256v16q0 130 -92 164q-29 11 -180 36q-132 53 -132 100q-48 52 -48 280v108q0 372 284 372h16q199 0 276 -204q8 -50 8 -84v-76q0 -128 -108 -128q-47 0 -64 36 q4 104 4 164v12q0 112 -140 112q-76 0 -100 -108q-8 -38 -12 -252l-4 -16q0 -99 96 -136q31 -15 180 -32q89 -23 136 -96q52 -109 52 -228v-52q0 -328 -124 -424q-140 -104 -264 -104h-4q-177 0 -228 140q-12 52 -12 80z" />
<glyph unicode="T" horiz-adv-x="982" d="M63 1399q0 112 128 112q341 24 448 24h92q148 0 148 -52v-28q0 -76 -48 -76q-113 0 -288 -8q12 -189 12 -460v-368q0 -276 -8 -528q-16 -28 -64 -28h-8q-88 10 -88 60q0 275 4 1316l-312 -12q-16 19 -16 48z" />
<glyph unicode="U" horiz-adv-x="979" d="M120 643v52q0 45 16 584q0 57 -4 264q15 12 36 12h44q92 0 92 -180v-224q-16 -292 -16 -444v-108q0 -350 120 -420q68 -28 124 -28q80 5 80 56q37 55 60 348q28 267 28 532q0 252 -32 460q17 16 64 16h12q76 0 96 -136q12 -80 16 -352q0 -862 -148 -1072q0 -16 -84 -28 h-72q-247 0 -368 212q-64 177 -64 456z" />
<glyph unicode="V" horiz-adv-x="999" d="M100 1486v16q0 24 92 32h4q103 0 199 -548q69 -331 97 -546q184 883 212 1002q27 76 112 76q40 0 48 -60q0 -95 -240 -1140q-43 -280 -76 -280q0 -28 -96 -28q-62 0 -100 352q-132 797 -224 996q-28 93 -28 128z" />
<glyph unicode="W" horiz-adv-x="1170" d="M82 1559q24 44 80 44q76 0 100 -172q0 -23 130 -1018q31 105 75 251.5t91 146.5h4q59 0 172 -422l32 196q48 255 124 938q27 16 48 16h32q80 -12 80 -72q-136 -1251 -204 -1424q-33 -84 -64 -84h-20q-8 -1 -15 -1q-67 0 -85 93q-36 113 -102 356h-4q-80 -372 -118 -412 q-32 -12 -48 -12q-92 0 -120 96q-68 481 -188 1480z" />
<glyph unicode="X" horiz-adv-x="893" d="M100 1494q0 36 108 44q83 0 224 -536v-4h4q154 568 248 568q96 -28 96 -72v-8q-144 -369 -248 -732l224 -744q0 -51 -76 -68h-36q-45 16 -92 168q-16 61 -124 396h-4q-76 -314 -152 -516q-28 -24 -44 -24q-71 0 -100 52v4q60 278 200 732q-80 284 -136 460 q-92 212 -92 280z" />
<glyph unicode="Y" horiz-adv-x="840" d="M52 1482v20q0 49 88 56l24 4q77 -112 172 -376q28 -78 36 -116h4q123 272 236 432q24 40 72 40q71 0 84 -100q-122 -179 -312 -568q16 -382 16 -684v-28q0 -192 -84 -192h-32q-60 0 -60 16q0 100 8 416q-4 93 -12 428q-156 450 -240 652z" />
<glyph unicode="Z" horiz-adv-x="873" d="M91 78q0 329 364 1064q0 11 100 224q-147 7 -396 12q-12 17 -12 32q0 120 76 120q78 8 360 8h112q72 -4 72 -24v-28q0 -66 -100 -256q-404 -875 -404 -1072q157 -20 384 -20h36q32 0 32 -36v-48q-13 -76 -72 -76h-160q-289 0 -376 68q-16 23 -16 32z" />
<glyph unicode="[" horiz-adv-x="693" d="M138 482v68q12 940 40 980q43 40 136 40h212q44 0 44 -88t-48 -88q-23 0 -192 -4q-12 -212 -12 -552v-616q0 -80 4 -240q172 4 212 4q20 -21 20 -64v-36q0 -72 -96 -72q0 -8 -240 -12q-76 11 -76 44q-4 416 -4 636z" />
<glyph unicode="\" horiz-adv-x="928" d="M71 1610q48 60 124 60q60 0 104 -196q428 -1330 480 -1476q44 -92 44 -124q0 -39 -120 -52q-89 0 -128 188q-504 1499 -504 1600z" />
<glyph unicode="]" horiz-adv-x="579" d="M44 1418v48q0 88 96 88q194 12 252 12q60 -25 60 -104q-4 -55 -4 -68q0 -269 -4 -1012l12 -516q-12 -52 -92 -52q-97 8 -256 12q-36 16 -36 64q5 108 20 108h40q17 0 32 4q17 -4 92 -8q4 107 4 168v1232q-19 0 -188 -12q-28 12 -28 36z" />
<glyph unicode="^" horiz-adv-x="983" d="M117 797v16q176 396 304 592q29 40 64 40h12q81 0 152 -212q208 -426 208 -448q0 -47 -104 -84h-8q-56 0 -72 32q-88 176 -184 416q-6 -2 -176 -344q-50 -92 -80 -92h-8q-108 36 -108 84z" />
<glyph unicode="_" horiz-adv-x="1048" d="M83 -193q0 96 40 96q25 0 268 -8q440 4 540 4q20 -21 20 -60q0 -120 -60 -120h-284q-92 0 -220 -4q-276 7 -276 24q-28 26 -28 68z" />
<glyph unicode="`" horiz-adv-x="579" d="M58 1917q42 120 84 120h12q276 -162 352 -188l16 -20v-12q-2 -48 -25 -92q-19 -35 -40 -35q-5 0 -11 3q-58 16 -284 136q-104 40 -104 88z" />
<glyph unicode="a" horiz-adv-x="905" d="M96 1114q0 78 100 148q173 80 352 80h56q152 0 152 -160q24 -160 24 -420q-17 -732 -28 -732q-29 -32 -80 -32h-52q-44 0 -44 36q8 115 24 488l-328 20q0 -82 4 -520q4 -35 4 -44q0 -40 -132 -40q-34 0 -44 56zM260 1002q12 -286 12 -296l344 -16l8 248q0 232 -92 232 q-21 4 -40 4q-102 0 -204 -60q-28 -32 -28 -112z" />
<glyph unicode="b" horiz-adv-x="710" d="M73 1q0 30 8 220q-8 242 -8 400q0 100 20 540q-4 35 -4 92q23 74 148 84h28q238 0 300 -140q40 -80 40 -172q0 -226 -112 -324q128 -81 128 -320q0 -153 -100 -324q-43 -59 -144 -88q-142 -32 -228 -32h-32q-37 0 -44 64zM225 837q0 -34 4 -108h4q95 14 164 76 q60 85 60 188q0 134 -92 168l-60 12q-72 -7 -72 -16q-8 -182 -8 -292v-28zM233 105h12q167 0 216 196q8 63 8 108v12q0 140 -144 140q-61 -4 -84 -12z" />
<glyph unicode="c" horiz-adv-x="660" d="M74 737q0 439 88 532q55 48 192 48h120q73 0 100 -128q16 -55 16 -272q0 -42 -92 -48h-28q-44 0 -44 120q-5 156 -16 156h-60q-108 0 -108 -160v-124q0 -228 -12 -644q0 -107 174 -120q42 20 42 192v24q0 25 32 28q116 -11 116 -84q4 -39 4 -74q0 -192 -126 -248 q-43 -15 -93 -15q-96 0 -217 57q-84 60 -84 160q-4 446 -4 600z" />
<glyph unicode="d" horiz-adv-x="783" d="M115 1219q0 60 60 84q73 20 168 20q213 0 284 -204q60 -239 60 -512q0 -471 -124 -600q-127 -76 -340 -76q-104 0 -104 60v4q0 461 -4 1224zM255 1143q16 -523 16 -588q-4 -354 -4 -460q198 25 198 70q60 45 70 446v24q0 500 -144 500q-5 9 -76 16z" />
<glyph unicode="e" horiz-adv-x="738" d="M92 631v68q12 600 52 600q25 20 60 20q64 0 304 -4q92 0 92 -56v-52q0 -68 -44 -68h-76q-70 0 -192 -12v-28q0 -93 -4 -268l264 20q44 0 44 -96v-24q0 -52 -60 -52q-30 -4 -256 -20l8 -508q85 0 324 16q38 0 40 -64v-16q0 -96 -68 -96l-376 -28h-8q-88 0 -88 44 q-16 291 -16 624z" />
<glyph unicode="f" horiz-adv-x="734" d="M97 1288q0 44 120 52q83 0 408 -44q12 -20 12 -32q0 -128 -32 -128q-42 0 -320 12l8 -312q174 -8 268 -8h12q20 0 20 -84q-3 -84 -20 -84l-260 -12q4 -292 4 -448v-164q0 -68 -40 -68h-108q-40 0 -40 88v348q0 287 -32 884z" />
<glyph unicode="g" horiz-adv-x="795" d="M96 521q0 625 100 760q40 40 144 60h76q183 0 248 -96q12 -37 12 -68v-232q0 -60 -80 -60h-12q-84 0 -84 60q4 181 4 212q-72 20 -104 20q-109 0 -128 -136q-12 -90 -12 -244v-552q0 -103 108 -124q21 0 36 -4q42 4 124 20l12 264q-110 -8 -136 -8q-12 20 -12 52v24 q0 104 72 104q0 7 60 8h16q143 0 152 -40v-172q0 -392 -76 -392q-37 -16 -216 -24q-205 0 -272 108q-20 0 -32 460z" />
<glyph unicode="h" horiz-adv-x="824" d="M84 1219q0 92 40 92l56 4q96 -6 96 -40q-4 -263 -4 -396v-120l236 12q17 472 28 528q17 28 80 28h8q70 0 84 -44l-16 -540q0 -196 40 -728q-30 -40 -100 -40h-16q-76 0 -76 76q-20 168 -36 540l-228 -16v-68q0 -419 12 -524q-19 -64 -128 -64q-49 0 -64 28 q-8 468 -12 1272z" />
<glyph unicode="i" horiz-adv-x="440" d="M97 25q0 277 20 848q-8 260 -16 336q0 40 68 40h52q72 0 72 -152q4 -48 4 -144v-80q0 -177 -16 -812q0 -60 -100 -72q-73 0 -84 36z" />
<glyph unicode="j" horiz-adv-x="693" d="M48 174q0 228 76 228h32q76 0 76 -32q-20 -131 -20 -156v-4q0 -4 -4 -4q0 -108 80 -108h12q60 0 60 40q48 96 48 460v584q0 40 -4 96q14 56 52 56h80q50 0 56 -64v-88q0 -213 4 -412q0 -618 -88 -776q-85 -80 -192 -80h-4q-200 0 -244 132q-20 46 -20 128z" />
<glyph unicode="k" horiz-adv-x="889" d="M86 1280q28 28 124 28q84 -33 84 -236q4 0 4 -84q0 -113 -8 -220v-4h4q118 202 284 440q75 112 136 112q48 0 88 -44v-16q0 -41 -61 -110q-209 -309 -316 -486q107 -230 224 -403q110 -162 110 -193q0 -2 -1 -4q-25 -84 -76 -84h-20q-67 0 -208 272q-128 233 -164 320h-4 q-4 -154 -8 -228q4 -141 20 -336q0 -44 -116 -44q-68 0 -68 80q-4 66 -12 372q4 410 16 612q-12 193 -32 256z" />
<glyph unicode="l" horiz-adv-x="673" d="M69 22v12q20 254 60 1264q24 48 140 48q44 -5 44 -44q-4 -60 -4 -84q0 -486 -48 -1076h240q71 0 92 -32q8 -32 8 -40v-36q0 -72 -96 -72h-292q-116 0 -144 60z" />
<glyph unicode="m" horiz-adv-x="999" d="M63 1259q0 92 140 132q41 -5 276 -542q168 376 208 508q31 40 84 40q100 -10 100 -92q0 -134 -20 -882v-28q0 -203 36 -416q0 -42 -108 -48q-76 0 -76 104q-23 148 -24 272q0 109 8 620q-152 -321 -176 -340q-13 -8 -24 -8h-32q-71 37 -216 408q48 -816 64 -992 q-29 -52 -116 -52h-20q-48 0 -48 64q-28 315 -56 1252z" />
<glyph unicode="n" horiz-adv-x="938" d="M93 1320q13 32 68 32h40q61 0 86 -56q18 -35 52 -236q74 -205 194 -424q57 -99 125 -252q-16 177 -16 475q0 195 7 441q0 52 64 52h28q85 0 96 -28q-20 -255 -20 -384q0 -259 24 -912q-26 -56 -92 -56q0 -8 -48 -8h-4q-52 0 -84 104q-133 289 -256 504l-87 181l16 -360 l17 -393q0 -52 -90 -52q-92 0 -92 52v20l-24 1032q-4 171 -4 268z" />
<glyph unicode="o" horiz-adv-x="722" d="M60 660v92q0 437 148 540q50 28 136 40q187 0 252 -300q28 -207 28 -396q-17 -468 -40 -468q-13 -69 -84 -152q-85 -72 -204 -72q-163 0 -216 392q-20 166 -20 324zM216 680q19 -560 108 -560q115 0 136 444v180q0 227 -72 364q-24 28 -60 28q-65 0 -96 -324 q-10 0 -16 -132z" />
<glyph unicode="p" horiz-adv-x="706" d="M83 983v32q0 316 36 316q54 12 88 12q156 -18 228 -60q188 -130 188 -404v-40q0 -289 -336 -408q-16 -6 -16 -12q0 -120 40 -460q-24 -28 -88 -28q-80 0 -80 72q-40 413 -60 980zM227 1000q0 -152 19 -407q132 42 190 138q29 39 41 142q0 89 -63 198q-87 89 -183 89 q-4 -88 -4 -130v-30z" />
<glyph unicode="q" horiz-adv-x="799" d="M67 688q0 487 180 616q96 80 200 80h16q150 0 232 -312q24 -177 24 -348q2 -43 2 -84q0 -311 -126 -536q58 -146 168 -276q4 -11 4 -21q0 -44 -72 -81q-12 -3 -24 -3q-45 0 -86 49q-51 62 -116 198q-61 -40 -114 -40q-167 10 -204 118q-84 232 -84 640zM219 608 q26 -490 124 -490h2l26 14q-16 52 -22 87q6 78 90 86q35 -2 64 -33q61 155 61 383v7q-5 331 -57 458q-36 72 -88 72h-20q-78 0 -152 -212q-28 -134 -28 -340v-32z" />
<glyph unicode="r" horiz-adv-x="754" d="M65 1285q0 72 40 72q113 12 192 12q162 0 272 -160q52 -117 52 -248q0 -225 -156 -352q122 -332 240 -568v-8q0 -43 -132 -80q-28 0 -96 188q-160 385 -172 400h-4q-2 0 -52 -4l36 -592q-28 -20 -76 -20h-8q-76 0 -76 48q-40 618 -60 1312zM221 1105q0 -226 16 -396h40 q129 0 176 160q12 46 12 96v12q0 220 -220 220h-20q-4 -73 -4 -92z" />
<glyph unicode="s" horiz-adv-x="697" d="M57 283v58q0 68 44 93q27 7 76 11q64 -11 64 -61q-8 -64 -12 -131q0 -129 96 -147h16q56 0 64 97v38q0 248 -48 297q-264 132 -264 404v88q0 218 192 289q72 12 132 12q121 0 178 -129q24 -84 34 -260q0 -96 -72 -96q-102 9 -102 40q1 25 1 47q0 188 -79 188h-20 q-84 0 -84 -129v-42q10 -187 226 -276q91 -71 91 -304q0 -23 -1 -48v-31q0 -268 -72 -331q-79 -54 -192 -54h-4q-169 0 -224 139q-40 99 -40 238z" />
<glyph unicode="t" horiz-adv-x="848" d="M55 1194v75q0 47 34 51q323 24 571 24q52 0 99 -1q35 0 40 -50v-67q-3 -44 -43 -44l-243 -12q-15 -280 -15 -450q0 -106 5 -183q5 -79 5 -187q0 -159 -11 -379q-1 -17 -86 -17h-44q-50 2 -54 11q-4 5 -4 11q0 3 1 5q11 171 11 332q0 118 -6 234q-5 101 -5 207 q0 175 17 407l-232 -17q-40 0 -40 50z" />
<glyph unicode="u" horiz-adv-x="738" d="M66 1055q12 244 36 244q35 20 72 20q88 -8 88 -40q-28 -420 -28 -544q0 -464 44 -540q24 -32 56 -32h4q116 0 116 128q16 151 16 348v244q0 138 -8 364q0 31 88 36h48q47 0 56 -152q4 -96 4 -152v-304q0 -529 -120 -660q-55 -44 -228 -44q-158 0 -200 120 q-40 117 -40 512q-4 148 -4 452z" />
<glyph unicode="v" horiz-adv-x="816" d="M56 1316q0 44 152 44q37 0 68 -264q36 -194 124 -760h4l164 1004q17 16 32 16h8q114 -12 124 -40v-24q-132 -787 -228 -1212q-21 -72 -72 -72h-64q-94 0 -136 432q-84 393 -176 876z" />
<glyph unicode="w" horiz-adv-x="1101" d="M71 1341q11 28 52 28h56q58 0 84 -64q112 -960 112 -992h8q96 349 120 392q15 12 28 12h16q49 0 68 -64q12 -66 92 -328h4q88 396 88 488q4 11 36 540q21 20 36 20h72q60 0 60 -100q4 -55 4 -120q0 -326 -120 -900q-89 -304 -180 -304q-19 -4 -52 -4q-27 0 -48 120 q-36 108 -68 244h-4q-112 -314 -128 -340q-21 -20 -52 -20q-124 0 -124 108q-100 633 -160 1284z" />
<glyph unicode="x" horiz-adv-x="775" d="M65 1278v24q0 28 112 64q58 0 140 -360q48 -165 48 -184h4q128 410 204 520l8 4h20q72 0 92 -36v-16q-19 -66 -88 -240q-84 -233 -148 -428q68 -212 220 -572v-12q0 -43 -112 -84h-12q-15 0 -100 200q-49 125 -92 272h-4q-110 -492 -132 -492l-16 -8q-116 10 -116 44v24 q24 144 68 316q56 201 92 304q-52 216 -108 424z" />
<glyph unicode="y" horiz-adv-x="750" d="M51 1322v4q0 50 116 72h4q31 0 48 -112q64 -221 108 -408h4q184 495 196 508h12q73 0 132 -62v-16q-76 -234 -228 -600l-24 -64q-27 -686 -38 -686q-21 -28 -36 -28q-107 -4 -122 -4q-24 4 -24 12q8 446 20 688q0 66 -164 672q-4 0 -4 24z" />
<glyph unicode="z" horiz-adv-x="759" d="M65 1214v8q0 112 44 112h376q136 0 136 -96q0 -77 -128 -400q-92 -288 -216 -708q211 16 344 16q24 -8 24 -44v-4q-7 -124 -36 -124q-322 -16 -408 -16q-95 0 -120 68v24q0 21 116 444q156 492 220 668h-260q-92 0 -92 52z" />
<glyph unicode="{" horiz-adv-x="706" d="M69 656v28q140 117 140 160q4 35 4 44l-20 444q0 182 192 244l40 4h72q100 0 100 -96v-28q0 -44 -120 -44q-92 0 -92 -60q-4 0 -4 -20l20 -480q0 -91 -96 -208q80 -84 80 -180q-4 -344 -4 -424q0 -140 48 -140q56 -4 96 -4h28q48 0 48 -92q-11 -76 -36 -76q-36 0 -172 -4 q-115 0 -160 116q-36 70 -36 272v316q0 102 -116 152q-12 48 -12 76z" />
<glyph unicode="|" horiz-adv-x="485" d="M115 1401q0 62 57 67h33q90 0 90 -85v-84q0 -383 20 -703q-1 -56 -1 -120q0 -238 20 -566q3 -14 3 -23q0 -60 -115 -60q-64 0 -68 50q0 35 -26 454q6 201 6 257q-19 446 -19 813z" />
<glyph unicode="}" horiz-adv-x="714" d="M36 1437v68q23 40 116 40h52q216 0 260 -312v-340q0 -84 72 -100q48 0 68 -112q-13 -47 -76 -84q-20 -56 -20 -96l12 -472q0 -185 -132 -264q-142 -48 -228 -48h-8q-31 0 -44 24v84q0 80 88 80q140 22 140 68q8 38 8 60v44q-24 329 -24 400q0 106 56 200 q-100 71 -100 240q8 71 8 180v20q0 252 -92 252h-112q-44 0 -44 68z" />
<glyph unicode="~" horiz-adv-x="1068" d="M106 472v16q115 284 300 284h28q73 0 188 -140q32 -56 56 -56h16q36 8 92 152q14 55 32 60h8q132 -17 132 -88v-12q0 -78 -92 -216q-76 -80 -164 -80h-20q-130 0 -264 192h-4q-51 0 -108 -76q-19 -49 -64 -88h-52q-38 0 -84 52z" />
<glyph unicode="&#xa1;" horiz-adv-x="485" d="M135 1220q0 96 88 96h36q68 -8 68 -52v-96q0 -76 -64 -76q-124 0 -124 80q-4 12 -4 48zM147 852q0 48 92 48h20q60 0 76 -40v-4l8 -924q-4 -101 -4 -232q-12 -36 -56 -36h-68q-38 0 -56 32l-8 1128q-4 16 -4 28z" />
<glyph unicode="&#xa2;" horiz-adv-x="879" d="M99 608q0 436 68 536q24 39 228 64q15 172 64 172q92 -7 92 -60v-4q-12 -63 -12 -76v-28h104q81 0 108 -100q12 -44 20 -256q0 -60 -112 -60q-40 0 -40 72v12q0 71 -8 176h-96q-16 -194 -16 -432v-224q0 -127 -4 -340l128 -8q16 162 16 216l24 20q108 0 108 -88v-4 q0 -244 -88 -288q-3 0 -24 -4q-33 0 -172 8q0 -144 -96 -144h-20q-40 0 -44 48q0 32 12 108h-4q-106 0 -196 76q-28 33 -32 72q0 26 -8 536zM239 152q0 -56 92 -80h16v4q20 102 28 980q-70 0 -112 -44q-12 -70 -12 -204v-12q0 -116 4 -192q-8 -283 -16 -452z" />
<glyph unicode="&#xa3;" horiz-adv-x="922" d="M56 613v20q6 108 44 108q37 8 152 16q-60 401 -60 492q0 243 212 312q68 16 108 16q216 0 288 -168q20 -46 20 -128v-4q0 -280 -96 -280h-24q-80 0 -80 44q8 47 24 236q-12 124 -92 124h-68q-95 0 -108 -148v-32q0 -66 40 -400v-52h12q73 0 204 -4q48 -13 48 -48v-20 q0 -92 -24 -92q-34 0 -236 -8q0 -88 -116 -412q-7 0 -12 -28h444q52 0 52 -44q-10 -128 -64 -128h-496q-77 0 -104 56q-12 34 -12 48v4q0 90 92 308q28 124 28 180h-160q-10 0 -16 32z" />
<glyph unicode="&#xa4;" horiz-adv-x="1191" d="M52 48q0 52 112 136q0 3 64 64v68q0 548 60 720q-130 131 -144 156q44 116 100 116q6 0 124 -104q67 112 256 112h48q119 0 208 -128l8 -4q123 108 144 108h4q46 0 68 -120v-12l-164 -148q8 -67 8 -112q0 -436 -56 -676q47 -43 148 -120q48 -25 48 -60v-12 q0 -88 -68 -120q-73 0 -204 136q-96 -92 -128 -92q-63 -16 -96 -16h-56q-154 0 -212 92q-15 40 -20 40q-127 -128 -176 -128h-4q-51 0 -72 104zM412 276q0 -160 164 -160h4q103 0 140 144q40 163 40 692q0 140 -104 184q-7 4 -16 4h-4q-151 0 -188 -140q-36 -228 -36 -716 v-8z" />
<glyph unicode="&#xa5;" horiz-adv-x="888" d="M114 705v4q0 72 104 72h112q0 109 -88 340q-124 352 -124 380q29 80 76 80q40 0 68 -104q24 -38 56 -144q80 -239 80 -264q22 34 168 324q92 164 148 164h16q48 -8 48 -60v-4q0 -24 -80 -148q-107 -183 -220 -436q4 -64 12 -124h64q23 0 64 4q64 0 80 -96v-12 q0 -72 -104 -72h-96v-4q4 -117 4 -136q86 8 132 8q71 0 80 -96v-16q0 -68 -128 -68h-80v-136q0 -180 -92 -180q-76 4 -76 20q0 28 8 292h-120q-96 0 -96 104q0 72 100 72h112v4q-4 109 -4 132h-4q-80 -4 -108 -4q-112 0 -112 104z" />
<glyph unicode="&#xa6;" horiz-adv-x="469" d="M123 1127q0 221 56 280q39 12 92 12q60 0 60 -40v-8q-24 -161 -24 -260q0 -112 20 -280q0 -48 -112 -48h-16q-68 0 -68 140q-8 120 -8 204zM135 99v292q0 240 88 240h12q96 0 96 -52q-16 -149 -16 -288v-224q0 -56 -92 -56h-16q-62 0 -72 88z" />
<glyph unicode="&#xa7;" horiz-adv-x="1040" d="M80 643v52q0 139 100 212q-52 63 -52 160v52q0 189 108 308q71 73 140 84q129 32 232 32h24q193 0 264 -156q16 -64 20 -132q-4 -163 -72 -180h-36q-84 0 -84 24v192q0 63 -108 72l-28 4q-187 0 -236 -92q-36 -84 -36 -192v-12q0 -101 164 -120q249 -58 332 -112 q104 -108 104 -208q0 -165 -72 -252v-4q44 -64 44 -148v-32q0 -349 -156 -420q-60 -28 -128 -28h-40q-436 0 -436 336v44q0 68 88 68h12q76 0 76 -32q-4 -50 -4 -56q0 -142 88 -164q67 -16 132 -16h84q77 0 92 152q8 95 8 144q-18 96 -136 96q-307 0 -420 108 q-68 106 -68 216zM268 647q0 -144 156 -144q96 -20 264 -36q44 58 44 140v16q0 129 -388 176q-76 -23 -76 -112v-40z" />
<glyph unicode="&#xa8;" horiz-adv-x="700" d="M80 1680v144q0 57 80 64h48q41 0 56 -60q0 -34 -4 -156q0 -30 -88 -36h-16q-76 0 -76 44zM428 1684v128q9 72 72 72h24q67 0 80 -44l4 -40q0 -160 -24 -160q-20 -16 -52 -16q-104 0 -104 60z" />
<glyph unicode="&#xa9;" horiz-adv-x="1257" d="M74 787q1 631 213 759q118 100 376 100h68q299 0 428 -213q63 -198 63 -436v-280q-1 -506 -169 -727q-103 -116 -444 -116h-64q-290 0 -384 261q-87 240 -87 652zM238 790q0 -385 91 -640q36 -62 88 -88q56 -24 216 -24q169 0 296 76q41 27 76 176q57 305 57 572v53 q0 396 -91 483q-133 80 -376 80q-209 0 -284 -152q-48 -143 -73 -516v-20zM374 804q10 320 102 400q76 91 211 91q13 0 27 -1q117 -10 146 -74q38 -71 38 -152q0 -18 -2 -36q0 -54 -46 -64q-15 -4 -36 -4q-71 6 -72 120q-4 32 -44 32q-6 1 -12 1q-94 0 -124 -151 q-20 -68 -20 -140q5 -371 49 -421q37 -42 77 -42q8 0 15 1q47 131 56 149t37 19q92 -4 92 -51v-3q-58 -282 -170 -282q-18 -1 -34 -1q-181 0 -228 141q-62 191 -62 468z" />
<glyph unicode="&#xaa;" horiz-adv-x="975" d="M120 745q0 646 156 788q123 76 248 76h48q264 0 264 -320v-84q0 -179 -68 -612l-24 -16h-44q-100 7 -100 48q16 284 32 356h-4q-40 0 -312 -4q-4 -74 -4 -108v-192q0 -60 -92 -60h-4q-88 0 -88 64zM336 1149q84 8 240 8h68q12 114 12 164q0 100 -76 112h-20 q-152 0 -188 -76q-12 -17 -36 -208z" />
<glyph unicode="&#xab;" horiz-adv-x="1109" d="M82 515v12q0 131 352 484q13 8 20 8q33 0 88 -48q16 -24 16 -36v-20q0 -20 -136 -176q-142 -172 -152 -216q218 -267 224 -288v-16q0 -51 -96 -104h-24q-36 0 -96 80q-117 115 -168 236q-28 64 -28 84zM542 507q11 122 352 504h12q116 -31 116 -80v-8q0 -32 -208 -300 l-76 -108q34 -62 124 -172q84 -90 84 -108q0 -69 -72 -128l-16 -4q-35 13 -188 192q-126 156 -128 212z" />
<glyph unicode="&#xac;" horiz-adv-x="992" d="M74 734q3 68 20 68l500 -32q143 8 220 8q61 0 68 -84q-36 -288 -60 -288q-26 -8 -36 -8h-60q-58 0 -68 32l28 172q-94 -4 -140 -4h-112q-307 0 -352 56q-8 22 -8 80z" />
<glyph unicode="&#xad;" horiz-adv-x="702" d="M92 709v32q0 64 92 64h104q172 0 244 8q63 0 72 -104v-12q0 -64 -124 -64q-50 -4 -308 -8q-65 0 -80 84z" />
<glyph unicode="&#xae;" horiz-adv-x="1388" d="M127 510v272q0 506 168 728q103 116 444 116h64q290 0 384 -260q88 -240 88 -652q0 -631 -212 -760q-118 -100 -376 -100h-68q-299 0 -428 212q-64 201 -64 444zM287 594q0 -404 92 -492q133 -80 376 -80q209 0 284 152q48 143 72 516v20q0 385 -92 640q-36 62 -88 88 q-56 24 -216 24q-169 0 -296 -76q-41 -27 -76 -176q-56 -305 -56 -572v-44zM459 298q0 298 48 960q19 12 72 12h12q278 0 328 -132q24 -51 24 -124v-28q0 -92 -72 -188q-43 -40 -76 -48q93 -246 136 -428q-9 -84 -84 -84q-49 0 -72 124q-28 77 -112 340h-44v-4 q-12 -219 -12 -408v-32q0 -40 -64 -40h-20q-64 0 -64 80zM635 846h32q104 0 124 76q24 38 24 76q0 132 -168 132q-12 -88 -12 -240v-44z" />
<glyph unicode="&#xaf;" horiz-adv-x="632" d="M69 1190v12q0 80 60 80q136 32 284 32h92q32 -15 32 -88q0 -76 -60 -76q-131 0 -352 -40h-8q-33 0 -48 80z" />
<glyph unicode="&#xb0;" horiz-adv-x="643" d="M99 1316q0 159 120 232q40 8 72 8h8l24 16q148 0 200 -112q20 -58 20 -112v-40q0 -198 -72 -252q-77 -56 -160 -56q-160 0 -204 236q-8 39 -8 80zM239 1248q0 -88 64 -88h20q96 0 96 136q0 124 -84 124q-96 0 -96 -108v-64z" />
<glyph unicode="&#xb1;" horiz-adv-x="893" d="M103 860v32q0 64 92 64q37 0 140 8q4 193 4 240q0 48 88 48h40q52 0 52 -52q4 -204 4 -236q256 -9 256 -24q16 -17 16 -64v-52q0 -31 -20 -40h-252v-152q0 -80 -52 -80h-68q-64 4 -64 32q0 37 -4 196q-224 0 -224 24q-8 30 -8 56zM107 324q0 60 88 60q13 4 528 28 q38 0 48 -88v-44q0 -44 -96 -44q-321 -20 -536 -20q-32 0 -32 108z" />
<glyph unicode="&#xb2;" horiz-adv-x="816" d="M98 1319v40q0 146 124 208q85 36 184 36q256 -33 256 -216v-44q0 -264 -260 -364q-92 -66 -92 -168v-56q184 28 304 28h28q56 0 56 -88v-8q0 -80 -108 -80q-63 0 -304 -36q-127 0 -160 128q-8 32 -8 68q0 307 296 424q64 56 64 164q0 67 -96 84q-57 0 -88 -80 q-12 -88 -72 -88q0 -4 -24 -4h-32q-68 8 -68 52z" />
<glyph unicode="&#xb3;" horiz-adv-x="701" d="M66 1408q0 223 231 223h50q223 0 223 -286q0 -101 -63 -184q92 -92 92 -185q0 -275 -193 -345q-64 -29 -117 -29h-51q-143 0 -143 164v67q9 67 51 67h25q80 0 80 -46q4 -1 4 -42v-38q151 36 151 105q21 38 21 63v9q0 76 -59 105q-109 26 -109 75v30q0 40 72 71 q42 12 42 34q12 59 12 84v4q0 86 -63 101h-12q-63 0 -63 -34q-36 -80 -89 -80h-25q-67 9 -67 67z" />
<glyph unicode="&#xb4;" horiz-adv-x="559" d="M51 1804v28q0 41 120 88q175 101 240 124h12q43 0 64 -92v-24q0 -51 -156 -116q-160 -92 -192 -92h-12q-61 0 -76 84z" />
<glyph unicode="&#xb5;" horiz-adv-x="919" d="M131 767v164q0 192 64 192h68q52 0 52 -44q0 -182 4 -440q-4 -154 -4 -240q0 -138 72 -204q2 0 40 -12q66 0 124 108q28 90 28 268v4q-16 403 -16 552q14 48 96 48h24q48 0 48 -128q20 -419 20 -580v-120q0 -118 28 -276q0 -74 -116 -84q-72 9 -72 68q-4 0 -4 8 q-93 -92 -176 -92h-12q-16 0 -76 24v-4q-4 -22 -4 -36v-112q0 -151 44 -388q0 -52 -96 -52h-36q-63 0 -80 188q-20 0 -20 1188z" />
<glyph unicode="&#xb6;" horiz-adv-x="1052" d="M88 1009v80q0 317 180 436q83 52 232 52q112 0 152 -60q8 -30 8 -36q-40 -1113 -40 -1168q0 -170 24 -474q-15 -13 -50 -13q-19 0 -42 4q-70 10 -83 116q-25 143 -25 455q0 81 4 244q4 7 4 16h-36q-246 0 -296 148q-32 89 -32 200zM736 329v132q0 454 40 1096 q19 36 40 36q91 0 108 -60q0 -149 -36 -1196q0 -297 16 -566q0 -41 -60 -44q-57 0 -68 40q-40 108 -40 562z" />
<glyph unicode="&#xb7;" horiz-adv-x="643" d="M151 611q12 151 85 151h58q66 -34 66 -93v-53q0 -58 -72 -99h-36q-101 17 -101 94z" />
<glyph unicode="&#xb8;" horiz-adv-x="783" d="M381 -284q9 24 28 24q17 0 104 -20q68 8 68 52q-13 48 -48 48q-93 -4 -96 -4q-44 9 -44 36q28 137 80 220q100 -12 116 -20l-52 -124q164 -27 164 -148q0 -136 -136 -164h-44q-140 0 -140 96v4z" />
<glyph unicode="&#xb9;" horiz-adv-x="587" d="M85 1306v12q0 92 156 176q44 31 128 76q116 -41 116 -132q-36 -279 -36 -760q0 -34 -68 -40q-116 4 -116 48q4 177 4 276v84q0 93 12 240v4h-4l-116 -84h-8q-48 0 -68 100z" />
<glyph unicode="&#xba;" horiz-adv-x="697" d="M83 1182q0 278 136 344q42 42 144 68q153 0 220 -188q0 -37 12 -392q0 -256 -140 -320q-34 -12 -80 -16q-102 0 -216 84q-68 79 -68 228q-6 0 -8 192zM231 1010q0 -112 60 -148q26 -8 36 -8h16q72 16 72 48q24 66 24 164v68q0 252 -56 252l-24 8q-91 0 -128 -188v-20 q0 -18 4 -120q-4 -50 -4 -56z" />
<glyph unicode="&#xbb;" horiz-adv-x="1093" d="M86 213q0 36 192 272q38 51 92 144q-74 106 -204 256l-4 20q0 59 76 124h24q304 -310 304 -404q0 -88 -284 -428q-25 -35 -72 -76q-124 29 -124 92zM490 193v16q0 27 60 92q228 272 228 312q-224 276 -224 288v12q0 43 84 100l32 8q39 0 100 -80q129 -131 168 -232 q28 -68 28 -84v-36q0 -110 -356 -472h-16q-53 0 -104 76z" />
<glyph unicode="&#xbc;" horiz-adv-x="1301" d="M87 1375q0 25 108 104q60 64 184 148q104 -18 104 -88q4 0 4 -28v-4q-30 -520 -56 -520q-31 -28 -60 -28h-48q-26 0 -36 24l24 388h-4q-135 -104 -152 -104q-45 0 -68 108zM111 11v20q0 23 152 308q128 253 420 976q168 332 232 332h12q63 -13 112 -68v-28 q0 -21 -64 -104q-186 -326 -392 -872q-136 -327 -260 -580q-38 -40 -72 -40h-4q-91 0 -136 56zM623 379q156 435 240 580q26 8 36 8h20q64 -5 64 -28v-8q0 -15 -176 -488q108 7 108 24q0 78 60 116h44q40 0 48 -32l-16 -92q74 4 108 4q12 -19 12 -60v-24q0 -68 -60 -68 q-76 -3 -76 -8q-51 -316 -64 -316q-36 -20 -80 -20q-72 0 -72 48q0 6 56 276l-188 -12q-64 16 -64 100z" />
<glyph unicode="&#xbd;" horiz-adv-x="1419" d="M77 1375v20q262 244 316 244h16q72 0 72 -88q-24 -246 -40 -548q-26 -36 -76 -36h-52q-31 0 -36 16l20 396h-4l-144 -104q-44 0 -72 100zM117 23v4q0 22 164 340q126 242 364 840q198 440 280 440h16q108 -42 108 -84q0 -37 -80 -136q-192 -360 -340 -752 q-139 -357 -300 -684q-36 -36 -72 -36h-4q-136 17 -136 68zM773 659v64q0 168 160 220q56 8 76 8q152 0 216 -136q16 -47 16 -104q0 -233 -172 -312q-112 -56 -112 -152v-44q158 28 236 28h20q56 0 56 -92v-4q-25 -76 -88 -76q-32 0 -276 -32q-98 0 -116 140v28 q0 260 232 360q56 49 56 148q0 60 -80 76q-61 0 -84 -80q0 -68 -72 -68h-20q-32 0 -48 28z" />
<glyph unicode="&#xbe;" horiz-adv-x="1484" d="M88 1423q0 182 224 212h44q148 0 192 -124q20 -39 20 -148q0 -102 -56 -172q84 -66 84 -152v-48q0 -234 -220 -328q-30 -8 -56 -8h-72q-132 0 -132 160v52q0 72 52 72h20q68 0 80 -36v-28q0 -20 4 -60h4q96 0 144 80q12 50 12 88v24q0 57 -44 76q-100 36 -100 56 q-4 7 -8 40q0 54 80 80q48 44 48 80v28q0 100 -64 100h-20q-52 0 -52 -32q-40 -76 -92 -76h-24q-68 8 -68 64zM292 23v4q0 24 116 244q160 302 352 792q244 584 340 584h16q108 -39 108 -92q0 -17 -88 -148q-142 -249 -296 -644q-72 -183 -176 -428q-161 -368 -188 -368 q-27 -12 -44 -12h-4q-132 20 -132 56q-4 0 -4 12zM816 375q161 431 240 580q26 8 36 8h32q52 0 52 -36q0 -15 -176 -488l108 12q0 110 72 128h40q29 0 40 -32q0 -10 -16 -92q85 8 96 8q24 0 24 -60v-28q0 -68 -60 -68q-76 -3 -76 -8q-48 -295 -60 -312q-32 -24 -84 -24 q-72 0 -72 48q0 6 56 276l-180 -12q-65 0 -72 100z" />
<glyph unicode="&#xbf;" horiz-adv-x="807" d="M78 99q0 181 192 404q88 159 88 436q27 20 80 20h48q56 0 56 -52q0 -406 -212 -624q-64 -101 -64 -188q0 -204 100 -204h108q39 0 44 76q-8 182 -8 232q-4 8 -4 12q20 28 96 28q73 0 92 -44q0 -31 8 -212q-24 -195 -80 -232q-23 -40 -140 -40h-68q-227 0 -296 164 q-40 90 -40 224zM362 1195v144q0 44 84 52h32q72 0 72 -48v-128q-7 -60 -48 -60h-76q-64 0 -64 40z" />
<glyph unicode="&#xc0;" horiz-adv-x="1056" d="M138 232v16q8 227 40 676q0 264 44 395t95 170t229 75q90 24 204 24q124 0 124 -116q-6 -280 -6 -372q10 -604 58 -1064q0 -44 -100 -44q-72 4 -76 24l-32 564q-155 0 -400 -16q-12 -177 -16 -312q8 -212 8 -256q-26 -28 -108 -28q-45 0 -60 16q-4 166 -4 248zM315 1930 q42 120 84 120h12q276 -162 352 -188l16 -20v-12q-2 -48 -25 -92q-19 -35 -40 -35q-5 0 -11 3q-58 16 -284 136q-104 40 -104 88zM326 728h8q207 0 380 20q-8 157 -8 326q0 170 8 341q-162 -1 -300 -75q-64 -65 -64 -292q-8 -67 -24 -320z" />
<glyph unicode="&#xc1;" horiz-adv-x="1064" d="M138 232v16q8 227 40 676q0 264 44 395t95 170t229 75q90 24 204 24q124 0 124 -116q-6 -280 -6 -372q10 -604 58 -1064q0 -44 -100 -44q-72 4 -76 24l-32 564q-155 0 -400 -16q-12 -177 -16 -312q8 -212 8 -256q-26 -28 -108 -28q-45 0 -60 16q-4 166 -4 248zM326 728h8 q207 0 380 20q-8 157 -8 326q0 170 8 341q-162 -1 -300 -75q-64 -65 -64 -292q-8 -67 -24 -320zM333 1800v28q0 41 120 88q175 101 240 124h12q43 0 64 -92v-24q0 -51 -156 -116q-160 -92 -192 -92h-12q-61 0 -76 84z" />
<glyph unicode="&#xc2;" horiz-adv-x="1060" d="M138 232v16q8 227 40 676q0 264 44 395t95 170t229 75q90 24 204 24q124 0 124 -116q-6 -280 -6 -372q10 -604 58 -1064q0 -44 -100 -44q-72 4 -76 24l-32 564q-155 0 -400 -16q-12 -177 -16 -312q8 -212 8 -256q-26 -28 -108 -28q-45 0 -60 16q-4 166 -4 248zM309 1780 v16q192 264 212 280q28 8 48 8h8q41 0 124 -104q136 -137 136 -160v-12q0 -35 -64 -76h-20q-30 0 -176 164v4q-148 -180 -156 -180q-16 -8 -28 -8q-84 18 -84 68zM326 728h8q207 0 380 20q-8 157 -8 326q0 170 8 341q-162 -1 -300 -75q-64 -65 -64 -292q-8 -67 -24 -320z " />
<glyph unicode="&#xc3;" horiz-adv-x="1060" d="M138 232v16q8 227 40 676q0 264 44 395t95 170t229 75q90 24 204 24q124 0 124 -116q-6 -280 -6 -372q10 -604 58 -1064q0 -44 -100 -44q-72 4 -76 24l-32 564q-155 0 -400 -16q-12 -177 -16 -312q8 -212 8 -256q-26 -28 -108 -28q-45 0 -60 16q-4 166 -4 248zM190 1794 q0 8 2 18q14 115 90 190q57 52 116 52h20q101 0 202 -124q13 -8 32 -8h5q46 0 93 128q9 33 57 33q9 0 20 -1q69 -11 69 -63q0 -22 -12 -51q-81 -219 -196 -228h-36q-95 0 -216 144v4h-24q-54 0 -92 -168q-10 -12 -28 -12q-22 0 -53 17q-49 26 -49 69zM326 728h8 q207 0 380 20q-8 157 -8 326q0 170 8 341q-162 -1 -300 -75q-64 -65 -64 -292q-8 -67 -24 -320z" />
<glyph unicode="&#xc4;" horiz-adv-x="1073" d="M138 232v16q8 227 40 676q0 264 44 395t95 170t229 75q90 24 204 24q124 0 124 -116q-6 -280 -6 -372q10 -604 58 -1064q0 -44 -100 -44q-72 4 -76 24l-32 564q-155 0 -400 -16q-12 -177 -16 -312q8 -212 8 -256q-26 -28 -108 -28q-45 0 -60 16q-4 166 -4 248zM317 1786 v144q0 57 80 64h48q41 0 56 -60q0 -34 -4 -156q0 -30 -88 -36h-16q-76 0 -76 44zM326 728h8q207 0 380 20q-8 157 -8 326q0 170 8 341q-162 -1 -300 -75q-64 -65 -64 -292q-8 -67 -24 -320zM665 1790v128q9 72 72 72h24q67 0 80 -44l4 -40q0 -160 -24 -160q-20 -16 -52 -16 q-104 0 -104 60z" />
<glyph unicode="&#xc5;" horiz-adv-x="1073" d="M138 232v16q8 227 40 676q0 264 44 395t95 170t229 75q90 24 204 24q124 0 124 -116q-6 -280 -6 -372q10 -604 58 -1064q0 -44 -100 -44q-72 4 -76 24l-32 564q-155 0 -400 -16q-12 -177 -16 -312q8 -212 8 -256q-26 -28 -108 -28q-45 0 -60 16q-4 166 -4 248zM326 728h8 q207 0 380 20q-8 157 -8 326q0 170 8 341q-162 -1 -300 -75q-64 -65 -64 -292q-8 -67 -24 -320zM326 1921v4q0 137 136 184q76 3 88 16q220 0 220 -184v-16q0 -162 -76 -204q-81 -40 -156 -40q-139 0 -196 144q-16 71 -16 96zM474 1889q0 -68 56 -68h28q61 0 76 80 q0 82 -64 96h-4q-88 0 -88 -68q-4 -14 -4 -40z" />
<glyph unicode="&#xc6;" horiz-adv-x="1313" d="M78 232v16q8 227 40 676q0 221 68 476q13 63 48 84q60 41 248 80q0 28 720 28q12 -17 12 -92q0 -112 -44 -112h-56q-139 0 -284 -8v-260q0 -73 4 -204q4 -8 4 -12q279 8 296 8q28 -9 28 -48v-68q0 -48 -52 -48q-57 -4 -272 -12v-16q0 -276 20 -552q157 12 328 12 q28 0 32 -60v-40q0 -60 -64 -60l-388 -28q-72 4 -76 24l-32 564q-155 0 -400 -16q-12 -177 -16 -312q8 -212 8 -256q-26 -28 -108 -28q-45 0 -60 16q-4 166 -4 248zM266 728h8q207 0 380 20v516q0 59 4 160q-165 0 -304 -84q-64 -65 -64 -292q-8 -67 -24 -320z" />
<glyph unicode="&#xc7;" horiz-adv-x="1028" d="M111 780q0 580 140 700q147 96 396 96q193 0 244 -128q12 -40 16 -84q0 -196 -80 -196q-12 -4 -48 -4h-40q-10 0 -12 16q0 46 8 192q0 42 -104 48q-242 0 -292 -96q-56 -160 -56 -404v-300q0 -275 84 -348q167 -72 292 -72q68 8 68 52v60q0 33 -12 216q63 40 128 40 q40 0 40 -72l16 -216q0 -152 -116 -208q-48 -20 -108 -20h-116l-28 4q-32 -68 -32 -88q160 -3 160 -141v-3q0 -114 -100 -156q-23 -10 -43 -10q-23 0 -41 15q-43 49 -43 72q0 19 31 19h8q68 6 68 56q-18 44 -52 44q-89 -4 -96 -4q-40 6 -40 36q0 40 60 188q-208 81 -208 128 q-92 128 -92 568z" />
<glyph unicode="&#xc8;" horiz-adv-x="791" d="M107 1508q9 40 80 40h468q16 0 16 -60v-48q0 -48 -44 -48h-56q-137 0 -288 -8q0 -30 24 -476l280 8q32 0 32 -88q0 -76 -48 -76l-260 -12q8 -411 16 -568q106 12 304 24q32 0 40 -56v-48q0 -72 -76 -72q-274 -16 -428 -16q-12 24 -12 76v544q0 397 -48 884zM127 1921 q42 120 84 120h12q276 -162 352 -188l16 -20v-12q-2 -48 -25 -92q-19 -35 -40 -35q-5 0 -11 3q-58 16 -284 136q-104 40 -104 88z" />
<glyph unicode="&#xc9;" horiz-adv-x="799" d="M107 1508q9 40 80 40h468q16 0 16 -60v-48q0 -48 -44 -48h-56q-137 0 -288 -8q0 -30 24 -476l280 8q32 0 32 -88q0 -76 -48 -76l-260 -12q8 -411 16 -568q106 12 304 24q32 0 40 -56v-48q0 -72 -76 -72q-274 -16 -428 -16q-12 24 -12 76v544q0 397 -48 884zM145 1779v28 q0 41 120 88q175 101 240 124h12q43 0 64 -92v-24q0 -51 -156 -116q-160 -92 -192 -92h-12q-61 0 -76 84z" />
<glyph unicode="&#xca;" horiz-adv-x="803" d="M107 1508q9 40 80 40h468q16 0 16 -60v-48q0 -48 -44 -48h-56q-137 0 -288 -8q0 -30 24 -476l280 8q32 0 32 -88q0 -76 -48 -76l-260 -12q8 -411 16 -568q106 12 304 24q32 0 40 -56v-48q0 -72 -76 -72q-274 -16 -428 -16q-12 24 -12 76v544q0 397 -48 884zM109 1753v16 q192 264 212 280q28 8 48 8h8q41 0 124 -104q136 -137 136 -160v-12q0 -35 -64 -76h-20q-30 0 -176 164v4q-148 -180 -156 -180q-16 -8 -28 -8q-84 18 -84 68z" />
<glyph unicode="&#xcb;" horiz-adv-x="799" d="M107 1508q9 40 80 40h468q16 0 16 -60v-48q0 -48 -44 -48h-56q-137 0 -288 -8q0 -30 24 -476l280 8q32 0 32 -88q0 -76 -48 -76l-260 -12q8 -411 16 -568q106 12 304 24q32 0 40 -56v-48q0 -72 -76 -72q-274 -16 -428 -16q-12 24 -12 76v544q0 397 -48 884zM133 1782v144 q0 57 80 64h48q41 0 56 -60q0 -34 -4 -156q0 -30 -88 -36h-16q-76 0 -76 44zM481 1786v128q9 72 72 72h24q67 0 80 -44l4 -40q0 -160 -24 -160q-20 -16 -52 -16q-104 0 -104 60z" />
<glyph unicode="&#xcc;" horiz-adv-x="599" d="M38 1907q42 120 84 120h12q276 -162 352 -188l16 -20v-12q-2 -48 -25 -92q-19 -35 -40 -35q-5 0 -11 3q-58 16 -284 136q-104 40 -104 88zM173 1512q0 48 64 48l56 4q43 0 52 -128q16 -759 44 -1376q-12 -60 -92 -60h-8q-43 0 -64 32q-36 858 -52 1480z" />
<glyph unicode="&#xcd;" horiz-adv-x="575" d="M51 1804v28q0 41 120 88q175 101 240 124h12q43 0 64 -92v-24q0 -51 -156 -116q-160 -92 -192 -92h-12q-61 0 -76 84zM173 1512q0 48 64 48l56 4q43 0 52 -128q16 -759 44 -1376q-12 -60 -92 -60h-8q-43 0 -64 32q-36 858 -52 1480z" />
<glyph unicode="&#xce;" horiz-adv-x="526" d="M3 1712v16q192 264 212 280q28 8 48 8h8q41 0 124 -104q136 -137 136 -160v-12q0 -35 -64 -76h-20q-30 0 -176 164v4q-148 -180 -156 -180q-16 -8 -28 -8q-84 18 -84 68zM173 1512q0 48 64 48l56 4q43 0 52 -128q16 -759 44 -1376q-12 -60 -92 -60h-8q-43 0 -64 32 q-36 858 -52 1480z" />
<glyph unicode="&#xcf;" horiz-adv-x="608" d="M11 1784v144q0 57 80 64h48q41 0 56 -60q0 -34 -4 -156q0 -30 -88 -36h-16q-76 0 -76 44zM183 1512q0 48 64 48l56 4q43 0 52 -128q16 -759 44 -1376q-12 -60 -92 -60h-8q-43 0 -64 32q-36 858 -52 1480zM359 1788v128q9 72 72 72h24q67 0 80 -44l4 -40q0 -160 -24 -160 q-20 -16 -52 -16q-104 0 -104 60z" />
<glyph unicode="&#xd0;" horiz-adv-x="975" d="M62 725q0 68 92 68h56v700q0 76 252 76h56q212 0 284 -212q31 0 52 -800v-40q0 -401 -372 -528q-116 -20 -184 -20t-68 56q-7 0 -8 60v116q0 199 -8 408l-8 4h-48q-96 0 -96 112zM378 1149q0 -173 8 -356q21 0 92 8q64 -13 64 -112q0 -68 -84 -68h-72q4 -217 16 -468 q148 33 188 92q100 115 100 332q-23 768 -60 768q-37 60 -120 60h-16q-62 0 -112 -24q-4 -74 -4 -108v-124z" />
<glyph unicode="&#xd1;" horiz-adv-x="999" d="M124 1540q0 45 98 57q63 0 101 -142q171 -384 317 -923h4q16 349 16 809v219q0 33 41 33q118 0 118 -81q0 -673 -77 -1561q-14 -8 -21 -8q-84 0 -109 57q-163 668 -325 1085h-5q21 -403 21 -666q0 -141 -8 -456q-22 -24 -53 -24q-106 18 -106 106q-4 619 -4 906v126 q0 146 -4 451q-4 8 -4 12zM125 1798q0 8 2 18q14 115 90 190q57 52 116 52h20q101 0 202 -124q13 -8 32 -8h5q46 0 93 128q9 33 57 33q9 0 20 -1q69 -11 69 -63q0 -22 -12 -51q-81 -219 -196 -228h-36q-95 0 -216 144v4h-24q-54 0 -92 -168q-10 -12 -28 -12q-22 0 -53 17 q-49 26 -49 69z" />
<glyph unicode="&#xd2;" horiz-adv-x="1028" d="M108 655q0 629 136 828q211 124 296 124h36q250 0 328 -592q0 -58 4 -248q0 -381 -148 -684q-98 -132 -232 -132q-272 0 -372 272q-48 178 -48 432zM272 675q0 -422 128 -524q91 -32 152 -32q141 0 184 652q4 97 4 148q0 346 -152 512q-13 8 -24 8h-12q-77 0 -208 -100 q-41 -78 -68 -568q-4 -12 -4 -96zM274 1937q42 120 84 120h12q276 -162 352 -188l16 -20v-12q-2 -48 -25 -92q-19 -35 -40 -35q-5 0 -11 3q-58 16 -284 136q-104 40 -104 88z" />
<glyph unicode="&#xd3;" horiz-adv-x="1044" d="M108 655q0 629 136 828q211 124 296 124h36q250 0 328 -592q0 -58 4 -248q0 -381 -148 -684q-98 -132 -232 -132q-272 0 -372 272q-48 178 -48 432zM272 675q0 -422 128 -524q91 -32 152 -32q141 0 184 652q4 97 4 148q0 346 -152 512q-13 8 -24 8h-12q-77 0 -208 -100 q-41 -78 -68 -568q-4 -12 -4 -96zM314 1802v28q0 41 120 88q175 101 240 124h12q43 0 64 -92v-24q0 -51 -156 -116q-160 -92 -192 -92h-12q-61 0 -76 84z" />
<glyph unicode="&#xd4;" horiz-adv-x="1036" d="M108 655q0 629 136 828q211 124 296 124h36q250 0 328 -592q0 -58 4 -248q0 -381 -148 -684q-98 -132 -232 -132q-272 0 -372 272q-48 178 -48 432zM207 1761v16q192 264 212 280q28 8 48 8h8q41 0 124 -104q136 -137 136 -160v-12q0 -35 -64 -76h-20q-30 0 -176 164v4 q-148 -180 -156 -180q-16 -8 -28 -8q-84 18 -84 68zM272 675q0 -422 128 -524q91 -32 152 -32q141 0 184 652q4 97 4 148q0 346 -152 512q-13 8 -24 8h-12q-77 0 -208 -100q-41 -78 -68 -568q-4 -12 -4 -96z" />
<glyph unicode="&#xd5;" horiz-adv-x="1028" d="M108 655q0 629 136 828q211 124 296 124h36q250 0 328 -592q0 -58 4 -248q0 -381 -148 -684q-98 -132 -232 -132q-272 0 -372 272q-48 178 -48 432zM165 1806q0 8 2 18q14 115 90 190q57 52 116 52h20q101 0 202 -124q13 -8 32 -8h5q46 0 93 128q9 33 57 33q9 0 20 -1 q69 -11 69 -63q0 -22 -12 -51q-81 -219 -196 -228h-36q-95 0 -216 144v4h-24q-54 0 -92 -168q-10 -12 -28 -12q-22 0 -53 17q-49 26 -49 69zM272 675q0 -422 128 -524q91 -32 152 -32q141 0 184 652q4 97 4 148q0 346 -152 512q-13 8 -24 8h-12q-77 0 -208 -100 q-41 -78 -68 -568q-4 -12 -4 -96z" />
<glyph unicode="&#xd6;" horiz-adv-x="1024" d="M108 655q0 629 136 828q211 124 296 124h36q250 0 328 -592q0 -58 4 -248q0 -381 -148 -684q-98 -132 -232 -132q-272 0 -372 272q-48 178 -48 432zM264 1810v144q0 57 80 64h48q41 0 56 -60q0 -34 -4 -156q0 -30 -88 -36h-16q-76 0 -76 44zM272 675q0 -422 128 -524 q91 -32 152 -32q141 0 184 652q4 97 4 148q0 346 -152 512q-13 8 -24 8h-12q-77 0 -208 -100q-41 -78 -68 -568q-4 -12 -4 -96zM612 1814v128q9 72 72 72h24q67 0 80 -44l4 -40q0 -160 -24 -160q-20 -16 -52 -16q-104 0 -104 60z" />
<glyph unicode="&#xd7;" horiz-adv-x="958" d="M90 1017q0 32 100 88q6 4 24 4q9 0 216 -228q188 253 220 276h16q104 -38 104 -80v-12q0 -19 -208 -316l-4 -8q264 -255 264 -272v-8q0 -26 -60 -88q-21 -20 -36 -20h-12q-61 18 -280 236q-192 -256 -212 -272h-4q-50 0 -124 96v8q0 20 204 292q16 20 16 24 q-224 254 -224 280z" />
<glyph unicode="&#xd8;" horiz-adv-x="1113" d="M52 -35q0 9 112 196q-52 120 -52 352v68q0 596 184 892q90 128 232 128h56q96 0 204 -76q80 120 128 120h8q100 -20 100 -64q-32 -73 -112 -236q52 -183 52 -332q0 -830 -224 -1000q-96 -76 -236 -76q-107 0 -216 60q-65 -103 -116 -116q-93 24 -120 68v16zM272 381h4 q148 304 284 608l148 368q-66 76 -96 76h-68q-182 0 -236 -480q-36 -195 -36 -444v-128zM364 145h4q77 -32 136 -40q167 0 216 232q72 392 72 612q3 0 8 116v4h-4q-83 -201 -216 -460q-180 -368 -216 -464z" />
<glyph unicode="&#xd9;" horiz-adv-x="1003" d="M130 643v52q0 45 16 584q0 57 -4 264q15 12 36 12h44q92 0 92 -180v-224q-16 -292 -16 -444v-108q0 -350 120 -420q68 -28 124 -28q80 5 80 56q37 55 60 348q28 267 28 532q0 252 -32 460q17 16 64 16h12q76 0 96 -136q12 -80 16 -352q0 -862 -148 -1072q0 -16 -84 -28 h-72q-247 0 -368 212q-64 177 -64 456zM213 1925q42 120 84 120h12q276 -162 352 -188l16 -20v-12q-2 -48 -25 -92q-19 -35 -40 -35q-5 0 -11 3q-58 16 -284 136q-104 40 -104 88z" />
<glyph unicode="&#xda;" horiz-adv-x="995" d="M130 643v52q0 45 16 584q0 57 -4 264q15 12 36 12h44q92 0 92 -180v-224q-16 -292 -16 -444v-108q0 -350 120 -420q68 -28 124 -28q80 5 80 56q37 55 60 348q28 267 28 532q0 252 -32 460q17 16 64 16h12q76 0 96 -136q12 -80 16 -352q0 -862 -148 -1072q0 -16 -84 -28 h-72q-247 0 -368 212q-64 177 -64 456zM239 1813v28q0 41 120 88q175 101 240 124h12q43 0 64 -92v-24q0 -51 -156 -116q-160 -92 -192 -92h-12q-61 0 -76 84z" />
<glyph unicode="&#xdb;" horiz-adv-x="1003" d="M130 643v52q0 45 16 584q0 57 -4 264q15 12 36 12h44q92 0 92 -180v-224q-16 -292 -16 -444v-108q0 -350 120 -420q68 -28 124 -28q80 5 80 56q37 55 60 348q28 267 28 532q0 252 -32 460q17 16 64 16h12q76 0 96 -136q12 -80 16 -352q0 -862 -148 -1072q0 -16 -84 -28 h-72q-247 0 -368 212q-64 177 -64 456zM194 1741v16q192 264 212 280q28 8 48 8h8q41 0 124 -104q136 -137 136 -160v-12q0 -35 -64 -76h-20q-30 0 -176 164v4q-148 -180 -156 -180q-16 -8 -28 -8q-84 18 -84 68z" />
<glyph unicode="&#xdc;" horiz-adv-x="1007" d="M130 643v52q0 45 16 584q0 57 -4 264q15 12 36 12h44q92 0 92 -180v-224q-16 -292 -16 -444v-108q0 -350 120 -420q68 -28 124 -28q80 5 80 56q37 55 60 348q28 267 28 532q0 252 -32 460q17 16 64 16h12q76 0 96 -136q12 -80 16 -352q0 -862 -148 -1072q0 -16 -84 -28 h-72q-247 0 -368 212q-64 177 -64 456zM235 1814v144q0 57 80 64h48q41 0 56 -60q0 -34 -4 -156q0 -30 -88 -36h-16q-76 0 -76 44zM583 1818v128q9 72 72 72h24q67 0 80 -44l4 -40q0 -160 -24 -160q-20 -16 -52 -16q-104 0 -104 60z" />
<glyph unicode="&#xdd;" horiz-adv-x="863" d="M62 1482v20q0 49 88 56l24 4q77 -112 172 -376q28 -78 36 -116h4q123 272 236 432q24 40 72 40q71 0 84 -100q-122 -179 -312 -568q16 -382 16 -684v-28q0 -192 -84 -192h-32q-60 0 -60 16q0 100 8 416q-4 93 -12 428q-156 450 -240 652zM212 1796v28q0 41 120 88 q175 101 240 124h12q43 0 64 -92v-24q0 -51 -156 -116q-160 -92 -192 -92h-12q-61 0 -76 84z" />
<glyph unicode="&#xde;" horiz-adv-x="783" d="M99 1452q0 42 76 56h52q52 0 52 -52l12 -200q229 0 324 -204q36 -96 36 -200q0 -415 -276 -508q-42 -12 -60 -12v-304q0 -56 -68 -64h-68q-52 0 -52 52v420q0 156 -28 1016zM295 1064q12 -154 16 -548h4q55 0 124 84q44 68 44 228v12q0 186 -132 220q-38 8 -56 8v-4z" />
<glyph unicode="&#xdf;" horiz-adv-x="899" d="M81 1236q12 116 84 116q48 12 184 12h32q249 0 328 -148q60 -132 60 -236q0 -113 -81 -259q109 -96 119 -293q0 -253 -196 -368q-73 -28 -144 -28h-4q-41 0 -42 92v28q0 68 52 68q156 51 156 192q-19 158 -150 158h-15q-44 0 -53 61q-2 14 -2 30t2 34q10 55 74 81 q84 59 84 168q0 157 -76 208q-65 12 -108 12q-100 0 -100 -16q-12 -119 -12 -468q0 -438 16 -1016q0 -42 -60 -52h-84q-48 5 -48 40q-16 849 -16 1584z" />
<glyph unicode="&#xe0;" horiz-adv-x="905" d="M96 1114q0 78 100 148q173 80 352 80h56q152 0 152 -160q24 -160 24 -420q-17 -732 -28 -732q-29 -32 -80 -32h-52q-44 0 -44 36q8 115 24 488l-328 20q0 -82 4 -520q4 -35 4 -44q0 -40 -132 -40q-34 0 -44 56zM172 1672q42 120 84 120h12q276 -162 352 -188l16 -20v-12 q-2 -48 -25 -92q-19 -35 -40 -35q-5 0 -11 3q-58 16 -284 136q-104 40 -104 88zM260 1002q12 -286 12 -296l344 -16l8 248q0 232 -92 232q-21 4 -40 4q-102 0 -204 -60q-28 -32 -28 -112z" />
<glyph unicode="&#xe1;" d="M96 1114q0 78 100 148q173 80 352 80h56q152 0 152 -160q24 -160 24 -420q-17 -732 -28 -732q-29 -32 -80 -32h-52q-44 0 -44 36q8 115 24 488l-328 20q0 -82 4 -520q4 -35 4 -44q0 -40 -132 -40q-34 0 -44 56zM165 1531v28q0 41 120 88q175 101 240 124h12q43 0 64 -92 v-24q0 -51 -156 -116q-160 -92 -192 -92h-12q-61 0 -76 84zM260 1002q12 -286 12 -296l344 -16l8 248q0 232 -92 232q-21 4 -40 4q-102 0 -204 -60q-28 -32 -28 -112z" />
<glyph unicode="&#xe2;" horiz-adv-x="909" d="M96 1114q0 78 100 148q173 80 352 80h56q152 0 152 -160q24 -160 24 -420q-17 -732 -28 -732q-29 -32 -80 -32h-52q-44 0 -44 36q8 115 24 488l-328 20q0 -82 4 -520q4 -35 4 -44q0 -40 -132 -40q-34 0 -44 56zM174 1541v16q192 264 212 280q28 8 48 8h8q41 0 124 -104 q136 -137 136 -160v-12q0 -35 -64 -76h-20q-30 0 -176 164v4q-148 -180 -156 -180q-16 -8 -28 -8q-84 18 -84 68zM260 1002q12 -286 12 -296l344 -16l8 248q0 232 -92 232q-21 4 -40 4q-102 0 -204 -60q-28 -32 -28 -112z" />
<glyph unicode="&#xe3;" d="M96 1114q0 78 100 148q173 80 352 80h56q152 0 152 -160q24 -160 24 -420q-17 -732 -28 -732q-29 -32 -80 -32h-52q-44 0 -44 36q8 115 24 488l-328 20q0 -82 4 -520q4 -35 4 -44q0 -40 -132 -40q-34 0 -44 56zM124 1524q0 7 2 15q13 100 78 165q50 45 101 45h17 q88 0 175 -108q12 -7 28 -7h4q41 0 81 111q8 29 49 29q9 0 18 -1q60 -10 60 -55q0 -19 -11 -44q-69 -189 -170 -197h-31q-82 0 -187 125v3h-21q-46 0 -80 -146q-9 -10 -24 -10q-19 0 -46 15q-43 23 -43 60zM260 1002q12 -286 12 -296l344 -16l8 248q0 232 -92 232 q-21 4 -40 4q-102 0 -204 -60q-28 -32 -28 -112z" />
<glyph unicode="&#xe4;" d="M96 1114q0 78 100 148q173 80 352 80h56q152 0 152 -160q24 -160 24 -420q-17 -732 -28 -732q-29 -32 -80 -32h-52q-44 0 -44 36q8 115 24 488l-328 20q0 -82 4 -520q4 -35 4 -44q0 -40 -132 -40q-34 0 -44 56zM165 1537v144q0 57 80 64h48q41 0 56 -60q0 -34 -4 -156 q0 -30 -88 -36h-16q-76 0 -76 44zM260 1002q12 -286 12 -296l344 -16l8 248q0 232 -92 232q-21 4 -40 4q-102 0 -204 -60q-28 -32 -28 -112zM513 1541v128q9 72 72 72h24q67 0 80 -44l4 -40q0 -160 -24 -160q-20 -16 -52 -16q-104 0 -104 60z" />
<glyph unicode="&#xe5;" d="M96 1114q0 78 100 148q173 80 352 80h56q152 0 152 -160q24 -160 24 -420q-17 -732 -28 -732q-29 -32 -80 -32h-52q-44 0 -44 36q8 115 24 488l-328 20q0 -82 4 -520q4 -35 4 -44q0 -40 -132 -40q-34 0 -44 56zM171 1684v4q0 137 136 184q76 3 88 16q220 0 220 -184v-16 q0 -162 -76 -204q-81 -40 -156 -40q-139 0 -196 144q-16 71 -16 96zM260 1002q12 -286 12 -296l344 -16l8 248q0 232 -92 232q-21 4 -40 4q-102 0 -204 -60q-28 -32 -28 -112zM319 1652q0 -68 56 -68h28q61 0 76 80q0 82 -64 96h-4q-88 0 -88 -68q-4 -14 -4 -40z" />
<glyph unicode="&#xe6;" horiz-adv-x="1219" d="M96 1114q0 83 112 156q158 64 264 64h148q440 0 440 -40q12 -2 12 -32v-48q0 -72 -64 -72h-60q-61 0 -188 4q-4 -222 -4 -336h248q60 0 60 -88v-24q0 -56 -68 -56l-248 -8l8 -468q260 8 324 16q32 0 40 -56v-4q0 -116 -64 -116l-356 -24q-116 0 -116 64q-4 42 -4 92v136 q0 82 4 248l-312 20q0 -82 4 -520q4 -35 4 -44q0 -40 -132 -40q-34 0 -44 56zM260 1002q12 -286 12 -296l312 -12q12 195 12 472q-75 8 -108 8q-200 -29 -200 -68q-28 -10 -28 -104z" />
<glyph unicode="&#xe7;" horiz-adv-x="693" d="M84 776q0 407 88 492q53 44 188 44h124q73 0 100 -116q16 -55 16 -252q0 -40 -120 -40q-48 0 -48 152q0 104 -12 104h-60q-108 0 -108 -152v-52q0 -451 -12 -716q0 -48 72 -88q42 -16 124 -24q20 147 20 220q29 12 32 12q116 0 116 -84q0 -296 -140 -296q-77 4 -100 4 l-28 -68q164 -27 164 -148q-12 -104 -72 -140q-46 -27 -90 -27q-15 0 -30 3q-39 60 -39 83q0 11 10 14q28 7 41 7q60 9 60 56q-7 46 -82 46q-27 0 -62 -6q-44 7 -44 40q12 58 48 160q-152 57 -152 168q-4 448 -4 604z" />
<glyph unicode="&#xe8;" horiz-adv-x="776" d="M112 631v68q12 600 52 600q25 20 60 20q64 0 304 -4q92 0 92 -56v-52q0 -68 -44 -68h-76q-70 0 -192 -12v-28q0 -93 -4 -268l264 20q44 0 44 -96v-24q0 -52 -60 -52q-30 -4 -256 -20l8 -508q85 0 324 16q38 0 40 -64v-16q0 -96 -68 -96l-376 -28h-8q-88 0 -88 44 q-16 291 -16 624zM115 1676q42 120 84 120h12q276 -162 352 -188l16 -20v-12q-2 -48 -25 -92q-19 -35 -40 -35q-5 0 -11 3q-58 16 -284 136q-104 40 -104 88z" />
<glyph unicode="&#xe9;" horiz-adv-x="776" d="M112 631v68q12 600 52 600q25 20 60 20q64 0 304 -4q92 0 92 -56v-52q0 -68 -44 -68h-76q-70 0 -192 -12v-28q0 -93 -4 -268l264 20q44 0 44 -96v-24q0 -52 -60 -52q-30 -4 -256 -20l8 -508q85 0 324 16q38 0 40 -64v-16q0 -96 -68 -96l-376 -28h-8q-88 0 -88 44 q-16 291 -16 624zM156 1523v28q0 41 120 88q175 101 240 124h12q43 0 64 -92v-24q0 -51 -156 -116q-160 -92 -192 -92h-12q-61 0 -76 84z" />
<glyph unicode="&#xea;" horiz-adv-x="776" d="M112 631v68q12 600 52 600q25 20 60 20q64 0 304 -4q92 0 92 -56v-52q0 -68 -44 -68h-76q-70 0 -192 -12v-28q0 -93 -4 -268l264 20q44 0 44 -96v-24q0 -52 -60 -52q-30 -4 -256 -20l8 -508q85 0 324 16q38 0 40 -64v-16q0 -96 -68 -96l-376 -28h-8q-88 0 -88 44 q-16 291 -16 624zM121 1541v16q192 264 212 280q28 8 48 8h8q41 0 124 -104q136 -137 136 -160v-12q0 -35 -64 -76h-20q-30 0 -176 164v4q-148 -180 -156 -180q-16 -8 -28 -8q-84 18 -84 68z" />
<glyph unicode="&#xeb;" horiz-adv-x="776" d="M118 1513v144q0 57 80 64h48q41 0 56 -60q0 -34 -4 -156q0 -30 -88 -36h-16q-76 0 -76 44zM122 631v68q12 600 52 600q25 20 60 20q64 0 304 -4q92 0 92 -56v-52q0 -68 -44 -68h-76q-70 0 -192 -12v-28q0 -93 -4 -268l264 20q44 0 44 -96v-24q0 -52 -60 -52 q-30 -4 -256 -20l8 -508q85 0 324 16q38 0 40 -64v-16q0 -96 -68 -96l-376 -28h-8q-88 0 -88 44q-16 291 -16 624zM466 1517v128q9 72 72 72h24q67 0 80 -44l4 -40q0 -160 -24 -160q-20 -16 -52 -16q-104 0 -104 60z" />
<glyph unicode="&#xec;" horiz-adv-x="514" d="M-12 1620q42 120 84 120h12q276 -162 352 -188l16 -20v-12q-2 -48 -25 -92q-19 -35 -40 -35q-5 0 -11 3q-58 16 -284 136q-104 40 -104 88zM137 25q0 277 20 848q-8 260 -16 336q0 40 68 40h52q72 0 72 -152q4 -48 4 -144v-80q0 -177 -16 -812q0 -60 -100 -72 q-73 0 -84 36z" />
<glyph unicode="&#xed;" horiz-adv-x="551" d="M51 1449v28q0 41 120 88q175 101 240 124h12q43 0 64 -92v-24q0 -51 -156 -116q-160 -92 -192 -92h-12q-61 0 -76 84zM167 25q0 277 20 848q-8 260 -16 336q0 40 68 40h52q72 0 72 -152q4 -48 4 -144v-80q0 -177 -16 -812q0 -60 -100 -72q-73 0 -84 36z" />
<glyph unicode="&#xee;" horiz-adv-x="583" d="M11 1419v16q192 264 212 280q28 8 48 8h8q41 0 124 -104q136 -137 136 -160v-12q0 -35 -64 -76h-20q-30 0 -176 164v4q-148 -180 -156 -180q-16 -8 -28 -8q-84 18 -84 68zM187 25q0 277 20 848q-8 260 -16 336q0 40 68 40h52q72 0 72 -152q4 -48 4 -144v-80 q0 -177 -16 -812q0 -60 -100 -72q-73 0 -84 36z" />
<glyph unicode="&#xef;" horiz-adv-x="587" d="M17 1429v144q0 57 80 64h48q41 0 56 -60q0 -34 -4 -156q0 -30 -88 -36h-16q-76 0 -76 44zM177 25q0 277 20 848q-8 260 -16 336q0 40 68 40h52q72 0 72 -152q4 -48 4 -144v-80q0 -177 -16 -812q0 -60 -100 -72q-73 0 -84 36zM365 1433v128q9 72 72 72h24q67 0 80 -44 l4 -40q0 -160 -24 -160q-20 -16 -52 -16q-104 0 -104 60z" />
<glyph unicode="&#xf0;" horiz-adv-x="803" d="M98 478v40q30 324 110 396q43 31 116 48q30 7 58 7q43 0 84 -15q-25 137 -72 228q-178 -72 -204 -88h-16q-39 0 -72 92v8q44 55 192 116v4l-156 140q0 39 104 84h20q22 0 156 -140q123 54 160 60q72 0 108 -92q0 -37 -120 -92q-32 -21 -32 -24q132 -228 132 -732v-110 q0 -315 -142 -388q-91 -44 -177 -44q-17 0 -33 2h-48q-122 0 -160 304q-8 95 -8 196zM242 434q0 -276 152 -276q93 0 112 248q12 146 12 204q-12 172 -92 172q-7 4 -16 4q-75 0 -121.5 -74t-46.5 -262v-16z" />
<glyph unicode="&#xf1;" horiz-adv-x="962" d="M93 1320q13 32 68 32h40q71 0 96 -56q18 -35 52 -236q64 -205 184 -424q57 -99 96 -148v760q0 104 84 104h28q68 -2 76 -24q-20 -260 -20 -412q12 -818 32 -860v-32q0 -50 -128 -60h-4q-52 0 -84 104q-133 289 -256 504q-7 0 -64 112h-4v-4l24 -680q0 -52 -100 -52 q-92 0 -92 52v20l-24 1028q-4 178 -4 272zM133 1556q0 8 2 17q13 109 85 180q54 49 109 49h19q96 0 191 -117q12 -8 30 -8h5q43 0 87 121q9 31 53 31q9 0 20 -1q66 -11 66 -60q0 -21 -12 -48q-76 -206 -185 -215h-34q-90 0 -204 136v4h-23q-50 0 -87 -159q-10 -11 -26 -11 q-20 0 -50 16q-46 24 -46 65z" />
<glyph unicode="&#xf2;" horiz-adv-x="726" d="M80 660v92q0 437 148 540q50 28 136 40q187 0 252 -300q28 -207 28 -396q-17 -468 -40 -468q-13 -69 -84 -152q-85 -72 -204 -72q-163 0 -216 392q-20 166 -20 324zM99 1680q42 120 84 120h12q276 -162 352 -188l16 -20v-12q-2 -48 -25 -92q-19 -35 -40 -35q-5 0 -11 3 q-58 16 -284 136q-104 40 -104 88zM236 680q19 -560 108 -560q115 0 136 444v180q0 227 -72 364q-24 28 -60 28q-65 0 -96 -324q-10 0 -16 -132z" />
<glyph unicode="&#xf3;" horiz-adv-x="775" d="M90 660v92q0 437 148 540q50 28 136 40q187 0 252 -300q28 -207 28 -396q-17 -468 -40 -468q-13 -69 -84 -152q-85 -72 -204 -72q-163 0 -216 392q-20 166 -20 324zM134 1511v28q0 41 120 88q175 101 240 124h12q43 0 64 -92v-24q0 -51 -156 -116q-160 -92 -192 -92h-12 q-61 0 -76 84zM246 680q19 -560 108 -560q115 0 136 444v180q0 227 -72 364q-24 28 -60 28q-65 0 -96 -324q-10 0 -16 -132z" />
<glyph unicode="&#xf4;" horiz-adv-x="763" d="M74 1500v16q192 264 212 280q28 8 48 8h8q41 0 124 -104q136 -137 136 -160v-12q0 -35 -64 -76h-20q-30 0 -176 164v4q-148 -180 -156 -180q-16 -8 -28 -8q-84 18 -84 68zM80 660v92q0 437 148 540q50 28 136 40q187 0 252 -300q28 -207 28 -396q-17 -468 -40 -468 q-13 -69 -84 -152q-85 -72 -204 -72q-163 0 -216 392q-20 166 -20 324zM236 680q19 -560 108 -560q115 0 136 444v180q0 227 -72 364q-24 28 -60 28q-65 0 -96 -324q-10 0 -16 -132z" />
<glyph unicode="&#xf5;" horiz-adv-x="799" d="M68 1499q0 8 2 17q14 109 85 180q54 49 110 49h18q96 0 191 -117q12 -8 30 -8h5q44 0 88 121q8 31 53 31q9 0 20 -1q65 -11 65 -60q0 -20 -12 -48q-75 -206 -185 -215h-34q-89 0 -204 136v4h-22q-51 0 -87 -159q-10 -11 -27 -11q-20 0 -50 16q-46 24 -46 65zM100 660v92 q0 437 148 540q50 28 136 40q187 0 252 -300q28 -207 28 -396q-17 -468 -40 -468q-13 -69 -84 -152q-85 -72 -204 -72q-163 0 -216 392q-20 166 -20 324zM256 680q19 -560 108 -560q115 0 136 444v180q0 227 -72 364q-24 28 -60 28q-65 0 -96 -324q-10 0 -16 -132z" />
<glyph unicode="&#xf6;" horiz-adv-x="726" d="M80 660v92q0 437 148 540q50 28 136 40q187 0 252 -300q28 -207 28 -396q-17 -468 -40 -468q-13 -69 -84 -152q-85 -72 -204 -72q-163 0 -216 392q-20 166 -20 324zM83 1521v144q0 57 80 64h48q41 0 56 -60q0 -34 -4 -156q0 -30 -88 -36h-16q-76 0 -76 44zM236 680 q19 -560 108 -560q115 0 136 444v180q0 227 -72 364q-24 28 -60 28q-65 0 -96 -324q-10 0 -16 -132zM431 1525v128q9 72 72 72h24q67 0 80 -44l4 -40q0 -160 -24 -160q-20 -16 -52 -16q-104 0 -104 60z" />
<glyph unicode="&#xf7;" horiz-adv-x="803" d="M145 774v32q0 64 108 64h88q183 0 240 8q76 0 76 -116q0 -68 -148 -68q-74 0 -280 -4q-84 12 -84 84zM287 1091q0 41 32 73t79 32q46 0 78 -32t32 -73q0 -42 -32 -74t-78 -32q-47 0 -79 32t-32 74zM295 483q0 41 32 73t79 32q46 0 78 -32t32 -73q0 -42 -32 -74t-78 -32 q-47 0 -79 32t-32 74z" />
<glyph unicode="&#xf8;" horiz-adv-x="807" d="M-2 0q0 6 1 12q0 40 128 228q-46 199 -46 420v92q10 441 162 544q92 36 136 36q10 1 20 1q62 0 122 -55q45 -49 83 -134q60 139 113 159q100 -1 100 -48q0 -10 -4 -22q-47 -110 -90 -193l-44 -88q16 -195 16 -340q-32 -449 -85.5 -527.5t-116.5 -108.5q-58 -32 -146 -32 h-20q-43 0 -104 60l-35 40q-68 -111 -109 -111h-3l-21 3q-57 16 -57 64zM257 729q0 -19 1 -38v-46q0 -117 9 -117q8 23 228 412q-39 168 -64 168q-17 28 -64 28q-69 -17 -91 -170q-19 -130 -19 -237zM283 248q29 -124 84 -124q90 0 128 232q16 151 28 380v4h-4 q-191 -386 -236 -492z" />
<glyph unicode="&#xf9;" horiz-adv-x="786" d="M86 1055q12 244 36 244q35 20 72 20q88 -8 88 -40q-28 -420 -28 -544q0 -464 44 -540q24 -32 56 -32h4q116 0 116 128q16 151 16 348v244q0 138 -8 364q0 31 88 36h48q47 0 56 -152q4 -96 4 -152v-304q0 -529 -120 -660q-55 -44 -228 -44q-158 0 -200 120 q-40 117 -40 512q-4 148 -4 452zM135 1669q42 120 84 120h12q276 -162 352 -188l16 -20v-12q-2 -48 -25 -92q-19 -35 -40 -35q-5 0 -11 3q-58 16 -284 136q-104 40 -104 88z" />
<glyph unicode="&#xfa;" horiz-adv-x="786" d="M96 1055q12 244 36 244q35 20 72 20q88 -8 88 -40q-28 -420 -28 -544q0 -464 44 -540q24 -32 56 -32h4q116 0 116 128q16 151 16 348v244q0 138 -8 364q0 31 88 36h48q47 0 56 -152q4 -96 4 -152v-304q0 -529 -120 -660q-55 -44 -228 -44q-158 0 -200 120 q-40 117 -40 512q-4 148 -4 452zM185 1530v28q0 41 120 88q175 101 240 124h12q43 0 64 -92v-24q0 -51 -156 -116q-160 -92 -192 -92h-12q-61 0 -76 84z" />
<glyph unicode="&#xfb;" horiz-adv-x="786" d="M86 1055q12 244 36 244q35 20 72 20q88 -8 88 -40q-28 -420 -28 -544q0 -464 44 -540q24 -32 56 -32h4q116 0 116 128q16 151 16 348v244q0 138 -8 364q0 31 88 36h48q47 0 56 -152q4 -96 4 -152v-304q0 -529 -120 -660q-55 -44 -228 -44q-158 0 -200 120 q-40 117 -40 512q-4 148 -4 452zM109 1528v16q192 264 212 280q28 8 48 8h8q41 0 124 -104q136 -137 136 -160v-12q0 -35 -64 -76h-20q-30 0 -176 164v4q-148 -180 -156 -180q-16 -8 -28 -8q-84 18 -84 68z" />
<glyph unicode="&#xfc;" horiz-adv-x="786" d="M81 1552v118q0 85 84 85h12q11 1 18 1q73 0 73 -86v-5l-4 -111v-6q0 -47 -103 -47q-79 1 -80 51zM86 1055q12 244 36 244q35 20 72 20q88 -8 88 -40q-28 -420 -28 -544q0 -464 44 -540q24 -32 56 -32h4q116 0 116 128q16 151 16 348v244q0 138 -8 364q0 31 88 36h48 q47 0 56 -152q4 -96 4 -152v-304q0 -529 -120 -660q-55 -44 -228 -44q-158 0 -200 120q-40 117 -40 512q-4 148 -4 452zM436 1669q3 82 85 82q18 0 41 -3q48 -1 53 -70l-2 -126q-1 -62 -71 -62h-12q-91 3 -91 48v4z" />
<glyph unicode="&#xfd;" horiz-adv-x="768" d="M71 1322v4q0 50 116 72h4q31 0 48 -112q64 -221 108 -408h4q184 495 196 508h12q73 0 132 -62v-16q-76 -234 -228 -600l-24 -64q-27 -686 -38 -686q-21 -28 -36 -28q-107 -4 -122 -4q-24 4 -24 12q8 446 20 688q0 66 -164 672q-4 0 -4 24zM173 1609v28q0 41 120 88 q175 101 240 124h12q43 0 64 -92v-24q0 -51 -156 -116q-160 -92 -192 -92h-12q-61 0 -76 84z" />
<glyph unicode="&#xfe;" horiz-adv-x="776" d="M118 1267q0 35 48 40h84q52 -5 52 -40t4 -192h20q225 0 284 -160q48 -180 48 -304q0 -244 -112 -380q-93 -92 -196 -92h-24q4 -166 4 -248q-9 -28 -48 -28h-36q-100 0 -100 48q-8 642 -28 1356zM290 895q12 -177 24 -568h12q98 0 128 72q36 127 36 248v36q0 156 -84 204 q-20 12 -40 12h-36z" />
<glyph unicode="&#xff;" horiz-adv-x="768" d="M71 1322v4q0 50 116 72h4q31 0 48 -112q64 -221 108 -408h4q184 495 196 508h12q73 0 132 -62v-16q-76 -234 -228 -600l-24 -64q-27 -686 -38 -686q-21 -28 -36 -28q-107 -4 -122 -4q-24 4 -24 12q8 446 20 688q0 66 -164 672q-4 0 -4 24zM113 1578v144q0 57 80 64h48 q41 0 56 -60q0 -34 -4 -156q0 -30 -88 -36h-16q-76 0 -76 44zM461 1582v128q9 72 72 72h24q67 0 80 -44l4 -40q0 -160 -24 -160q-20 -16 -52 -16q-104 0 -104 60z" />
<glyph unicode="&#x152;" horiz-adv-x="1256" d="M88 654q0 620 136 832q143 114 224 124q57 0 84 -4q200 4 348 4h248q18 0 20 -84v-12q0 -76 -40 -76h-64q-137 0 -288 -8q16 -242 24 -504q259 8 292 8q20 -21 20 -64v-52q0 -60 -40 -60l-268 -16q16 -488 16 -572l4 -28l304 24q40 0 40 -80v-24q0 -84 -56 -84 q-382 -28 -588 -28q-267 0 -368 272q-48 178 -48 432zM252 654q0 -412 136 -508q87 -32 120 -32h16q65 0 104 108q-15 326 -28 1112q-23 112 -108 112q-83 0 -176 -120q-40 -117 -64 -616v-56z" />
<glyph unicode="&#x153;" horiz-adv-x="1032" d="M72 668v92q0 437 148 540q50 28 136 40q18 -2 53 -2t87 2q412 0 412 -56v-72q0 -72 -76 -72h-48q-61 0 -188 4q0 -48 16 -300h120q46 0 140 4q28 -17 28 -80v-32q0 -64 -56 -64l-220 -12v-4q0 -204 -12 -516q28 0 308 16q33 0 36 -64v-25q0 -84 -36 -87q-38 -4 -40 -4 q-245 -24 -392 -24h-184q-114 0 -180 224q-52 207 -52 492zM237 638q0 -222 47 -415q20 -78 64 -91q69 0 88 236q14 188 14 312q-3 413 -50 448q-20 16 -52 16q-65 -21 -89 -172q-22 -140 -22 -276v-58z" />
<glyph unicode="&#x178;" horiz-adv-x="852" d="M52 1482v20q0 49 88 56l24 4q77 -112 172 -376q28 -78 36 -116h4q123 272 236 432q24 40 72 40q71 0 84 -100q-122 -179 -312 -568q16 -382 16 -684v-28q0 -192 -84 -192h-32q-60 0 -60 16q0 100 8 416q-4 93 -12 428q-156 450 -240 652zM141 1714v144q0 57 80 64h48 q41 0 56 -60q0 -34 -4 -156q0 -30 -88 -36h-16q-76 0 -76 44zM489 1718v128q9 72 72 72h24q67 0 80 -44l4 -40q0 -160 -24 -160q-20 -16 -52 -16q-104 0 -104 60z" />
<glyph unicode="&#x2c6;" horiz-adv-x="791" d="M109 1753v16q192 264 212 280q28 8 48 8h8q41 0 124 -104q136 -137 136 -160v-12q0 -35 -64 -76h-20q-30 0 -176 164v4q-148 -180 -156 -180q-16 -8 -28 -8q-84 18 -84 68z" />
<glyph unicode="&#x2dc;" horiz-adv-x="907" d="M80 1704q0 8 2 18q14 115 90 190q57 52 116 52h20q101 0 202 -124q13 -8 32 -8h5q46 0 93 128q9 33 57 33q9 0 20 -1q69 -11 69 -63q0 -22 -12 -51q-81 -219 -196 -228h-36q-95 0 -216 144v4h-24q-54 0 -92 -168q-10 -12 -28 -12q-22 0 -53 17q-49 26 -49 69z" />
<glyph unicode="&#x2000;" horiz-adv-x="1062" />
<glyph unicode="&#x2001;" horiz-adv-x="2125" />
<glyph unicode="&#x2002;" horiz-adv-x="1062" />
<glyph unicode="&#x2003;" horiz-adv-x="2125" />
<glyph unicode="&#x2004;" horiz-adv-x="708" />
<glyph unicode="&#x2005;" horiz-adv-x="531" />
<glyph unicode="&#x2006;" horiz-adv-x="354" />
<glyph unicode="&#x2007;" horiz-adv-x="354" />
<glyph unicode="&#x2008;" horiz-adv-x="265" />
<glyph unicode="&#x2009;" horiz-adv-x="425" />
<glyph unicode="&#x200a;" horiz-adv-x="118" />
<glyph unicode="&#x2010;" horiz-adv-x="702" d="M92 709v32q0 64 92 64h104q172 0 244 8q63 0 72 -104v-12q0 -64 -124 -64q-50 -4 -308 -8q-65 0 -80 84z" />
<glyph unicode="&#x2011;" horiz-adv-x="702" d="M92 709v32q0 64 92 64h104q172 0 244 8q63 0 72 -104v-12q0 -64 -124 -64q-50 -4 -308 -8q-65 0 -80 84z" />
<glyph unicode="&#x2012;" horiz-adv-x="702" d="M92 709v32q0 64 92 64h104q172 0 244 8q63 0 72 -104v-12q0 -64 -124 -64q-50 -4 -308 -8q-65 0 -80 84z" />
<glyph unicode="&#x2013;" horiz-adv-x="669" d="M64 712v2q0 88 87 91h111q90 0 254 8q63 0 65 -84q0 -94 -103 -94q-232 -7 -333 -7q-80 0 -81 84z" />
<glyph unicode="&#x2014;" horiz-adv-x="1007" d="M64 675v35q0 92 76 95h253q138 0 454 8q61 0 64 -85q0 -93 -111 -93q-430 -7 -664 -7q-67 5 -72 47z" />
<glyph unicode="&#x2018;" horiz-adv-x="440" d="M120 1220v292q0 72 98 72q91 0 91 -86v-258q0 -63 -80 -67h-41q-67 0 -68 47z" />
<glyph unicode="&#x2019;" horiz-adv-x="436" d="M115 1219v292q0 72 98 72q91 0 91 -86v-258q0 -63 -81 -66l-40 -1q-67 0 -68 47z" />
<glyph unicode="&#x201a;" horiz-adv-x="436" d="M121 110q0 72 98 72q91 0 91 -86v-258q0 -63 -78 -67h-43q-67 0 -68 47v292z" />
<glyph unicode="&#x201c;" horiz-adv-x="648" d="M75 1200v292q0 72 98 72q91 0 91 -86v-258q0 -63 -76 -67h-45q-67 0 -68 47zM368 1196v292q0 72 98 72q91 0 91 -86v-258q0 -63 -66 -67h-55q-67 0 -68 47z" />
<glyph unicode="&#x201d;" horiz-adv-x="677" d="M85 1200v292q0 72 98 72q91 0 91 -86v-258q0 -63 -78 -67h-43q-67 0 -68 47zM388 1196v292q0 72 98 72q91 0 91 -86v-258q0 -63 -67 -67h-54q-67 0 -68 47z" />
<glyph unicode="&#x201e;" horiz-adv-x="701" d="M103 -108v292q0 72 98 72q91 0 91 -86v-258q0 -63 -64 -67h-57q-67 0 -68 47zM396 -112v292q0 72 98 72q91 0 91 -86v-258q0 -63 -64 -68l-57 1q-67 0 -68 47z" />
<glyph unicode="&#x2022;" horiz-adv-x="1194" d="M407 747q0 60 41.5 109t106.5 49t106.5 -49t41.5 -109t-41.5 -109t-106.5 -49t-106.5 49t-41.5 109z" />
<glyph unicode="&#x2026;" horiz-adv-x="1203" d="M62 95q0 41 32 73t79 32q46 0 78 -32t32 -73q0 -42 -32 -74t-78 -32q-47 0 -79 32t-32 74zM389 78q0 41 32 73t79 32q46 0 78 -32t32 -73q0 -42 -32 -74t-78 -32q-47 0 -79 32t-32 74zM726 95q0 41 32 73t79 32q46 0 78 -32t32 -73q0 -42 -32 -74t-78 -32q-47 0 -79 32 t-32 74z" />
<glyph unicode="&#x202f;" horiz-adv-x="425" />
<glyph unicode="&#x2039;" horiz-adv-x="726" d="M106 521v20q0 133 356 488h24q96 -34 96 -96q0 -23 -136 -176q-136 -173 -152 -224q220 -265 224 -284v-20q-42 -100 -108 -100h-20q-35 4 -192 196q-85 143 -92 196z" />
<glyph unicode="&#x203a;" horiz-adv-x="750" d="M116 212q0 34 136 204q67 83 148 204q0 29 -152 208q-52 52 -52 72v16q0 51 72 116h24q9 0 136 -144q168 -190 168 -256v-8q-4 -60 -120 -220q-77 -110 -228 -276l-8 -4q-124 34 -124 88z" />
<glyph unicode="&#x205f;" horiz-adv-x="531" />
<glyph unicode="&#x20ac;" horiz-adv-x="1003" d="M93 549v60q0 46 28 64q56 20 108 20l-8 112q-85 -4 -100 -4q-25 0 -28 32v16q0 112 124 112v44q0 358 100 460q120 104 296 104q276 0 276 -240q0 -156 -24 -156q-30 -12 -76 -12h-20q-68 0 -68 60q0 143 -40 168h-72q-115 0 -152 -76q-32 -82 -32 -284v-48l304 12 q8 -15 8 -32v-68q0 -37 -48 -44q-16 -4 -280 -24v-124q183 24 268 24q44 0 44 -96v-4q0 -58 -180 -68q-29 0 -104 -8q0 -307 140 -372h40q65 0 92 48q20 31 20 132q0 5 -4 40q16 32 44 32h72q68 0 68 -32q0 -49 4 -164q0 -97 -120 -188q-103 -48 -192 -48q-237 0 -320 312 q-16 117 -20 204q-104 -8 -124 -8q-24 8 -24 44z" />
<glyph unicode="&#x2122;" horiz-adv-x="1211" d="M77 1234v60q8 64 44 64q33 0 424 4q12 -18 12 -28q0 -132 -32 -132q-15 0 -144 4q16 -328 16 -372q0 -204 -36 -204l-28 -4h-80q-21 0 -24 12v4q0 23 12 188v8q0 138 -8 364h-136q-20 10 -20 32zM649 1238q5 120 24 120h64q35 0 108 -160q36 -64 40 -64q102 219 116 236 q0 4 4 4h60q44 -6 44 -20q0 -124 -4 -404q4 -196 4 -304q0 -32 -108 -32q-8 13 -8 24v464h-4q-78 -168 -116 -168q-32 19 -92 132v-164q0 -90 4 -256q0 -24 -76 -24q-48 0 -48 44v124q0 269 -12 448z" />
<glyph unicode="&#x25fc;" horiz-adv-x="1365" d="M0 0v1365h1365v-1365h-1365z" />
</font>
</defs>
</svg>
